<mxfile host="app.diagrams.net" modified="2023-12-03T19:53:51.455Z" agent="Mozilla/5.0 (Windows NT 10.0; Win64; x64) AppleWebKit/537.36 (KHTML, like Gecko) Chrome/119.0.0.0 Safari/537.36" etag="L178163Tf02MTWZlT9r-" version="22.1.5" type="device">
  <diagram name="Página-1" id="ikcWOnGJ2lyprhEWrjTi">
    <mxGraphModel dx="2514" dy="1491" grid="1" gridSize="10" guides="1" tooltips="1" connect="1" arrows="1" fold="1" page="1" pageScale="1" pageWidth="4000" pageHeight="2000" math="0" shadow="0">
      <root>
        <mxCell id="0" />
        <mxCell id="1" parent="0" />
        <mxCell id="ui4IRazxlRf7Joern0LO-2" value="Libros" style="rounded=0;whiteSpace=wrap;html=1;fillColor=#fad9d5;strokeColor=#ae4132;" parent="1" vertex="1">
          <mxGeometry x="1764" y="910" width="100" height="40" as="geometry" />
        </mxCell>
        <mxCell id="3jUxStKqnb5tfGaNxafw-2" value="Año_Publicacion" style="ellipse;whiteSpace=wrap;html=1;fillColor=#fad9d5;strokeColor=#ae4132;" parent="1" vertex="1">
          <mxGeometry x="1664" y="970" width="120" height="40" as="geometry" />
        </mxCell>
        <mxCell id="3jUxStKqnb5tfGaNxafw-4" value="Id_Libro" style="ellipse;shape=doubleEllipse;margin=3;whiteSpace=wrap;html=1;align=center;fillColor=#fad9d5;strokeColor=#ae4132;" parent="1" vertex="1">
          <mxGeometry x="1884" y="970" width="100" height="40" as="geometry" />
        </mxCell>
        <mxCell id="3jUxStKqnb5tfGaNxafw-7" value="Id_Autor" style="ellipse;shape=doubleEllipse;margin=3;whiteSpace=wrap;html=1;align=center;fillColor=#fad9d5;strokeColor=#ae4132;" parent="1" vertex="1">
          <mxGeometry x="1684" y="1106.5" width="100" height="40" as="geometry" />
        </mxCell>
        <mxCell id="3jUxStKqnb5tfGaNxafw-8" value="Autores" style="rounded=0;whiteSpace=wrap;html=1;fillColor=#f5f5f5;gradientColor=#b3b3b3;strokeColor=#666666;" parent="1" vertex="1">
          <mxGeometry x="1576" y="1340" width="100" height="40" as="geometry" />
        </mxCell>
        <mxCell id="3jUxStKqnb5tfGaNxafw-9" value="Tiene" style="strokeWidth=2;html=1;shape=mxgraph.flowchart.decision;whiteSpace=wrap;fillColor=#fad9d5;strokeColor=#ae4132;" parent="1" vertex="1">
          <mxGeometry x="1765" y="1040" width="100" height="40" as="geometry" />
        </mxCell>
        <mxCell id="3jUxStKqnb5tfGaNxafw-11" value="Nombre" style="ellipse;whiteSpace=wrap;html=1;fillColor=#f5f5f5;gradientColor=#b3b3b3;strokeColor=#666666;" parent="1" vertex="1">
          <mxGeometry x="1426" y="1340" width="120" height="40" as="geometry" />
        </mxCell>
        <mxCell id="3jUxStKqnb5tfGaNxafw-12" value="Id_Autor" style="ellipse;shape=doubleEllipse;margin=3;whiteSpace=wrap;html=1;align=center;fillColor=#f5f5f5;gradientColor=#b3b3b3;strokeColor=#666666;" parent="1" vertex="1">
          <mxGeometry x="1576" y="1410" width="100" height="40" as="geometry" />
        </mxCell>
        <mxCell id="3jUxStKqnb5tfGaNxafw-13" value="Nacionalidad" style="ellipse;whiteSpace=wrap;html=1;fillColor=#f5f5f5;gradientColor=#b3b3b3;strokeColor=#666666;" parent="1" vertex="1">
          <mxGeometry x="1426" y="1410" width="120" height="40" as="geometry" />
        </mxCell>
        <mxCell id="3jUxStKqnb5tfGaNxafw-14" value="Fecha_Nacimiento" style="ellipse;whiteSpace=wrap;html=1;fillColor=#f5f5f5;gradientColor=#b3b3b3;strokeColor=#666666;" parent="1" vertex="1">
          <mxGeometry x="1706" y="1340" width="120" height="40" as="geometry" />
        </mxCell>
        <mxCell id="3jUxStKqnb5tfGaNxafw-15" value="Biografia" style="ellipse;whiteSpace=wrap;html=1;fillColor=#f5f5f5;gradientColor=#b3b3b3;strokeColor=#666666;" parent="1" vertex="1">
          <mxGeometry x="1706" y="1410" width="120" height="40" as="geometry" />
        </mxCell>
        <mxCell id="3jUxStKqnb5tfGaNxafw-17" value="" style="endArrow=classic;html=1;rounded=0;exitX=0.75;exitY=1;exitDx=0;exitDy=0;fillColor=#fad9d5;strokeColor=#ae4132;" parent="1" source="ui4IRazxlRf7Joern0LO-2" target="3jUxStKqnb5tfGaNxafw-4" edge="1">
          <mxGeometry width="50" height="50" relative="1" as="geometry">
            <mxPoint x="1964" y="940" as="sourcePoint" />
            <mxPoint x="2014" y="890" as="targetPoint" />
          </mxGeometry>
        </mxCell>
        <mxCell id="3jUxStKqnb5tfGaNxafw-18" value="" style="endArrow=classic;html=1;rounded=0;exitX=0.75;exitY=1;exitDx=0;exitDy=0;entryX=0.608;entryY=-0.05;entryDx=0;entryDy=0;entryPerimeter=0;fillColor=#fad9d5;strokeColor=#ae4132;" parent="1" target="3jUxStKqnb5tfGaNxafw-2" edge="1">
          <mxGeometry width="50" height="50" relative="1" as="geometry">
            <mxPoint x="1786" y="950" as="sourcePoint" />
            <mxPoint x="1804" y="1000" as="targetPoint" />
          </mxGeometry>
        </mxCell>
        <mxCell id="3jUxStKqnb5tfGaNxafw-20" value="" style="endArrow=classic;html=1;rounded=0;exitX=0.75;exitY=1;exitDx=0;exitDy=0;fillColor=#f5f5f5;gradientColor=#b3b3b3;strokeColor=#666666;" parent="1" target="3jUxStKqnb5tfGaNxafw-13" edge="1">
          <mxGeometry width="50" height="50" relative="1" as="geometry">
            <mxPoint x="1576" y="1380" as="sourcePoint" />
            <mxPoint x="1547" y="1428" as="targetPoint" />
          </mxGeometry>
        </mxCell>
        <mxCell id="3jUxStKqnb5tfGaNxafw-21" value="" style="endArrow=classic;html=1;rounded=0;exitX=0.75;exitY=1;exitDx=0;exitDy=0;entryX=0;entryY=0;entryDx=0;entryDy=0;fillColor=#f5f5f5;gradientColor=#b3b3b3;strokeColor=#666666;" parent="1" target="3jUxStKqnb5tfGaNxafw-15" edge="1">
          <mxGeometry width="50" height="50" relative="1" as="geometry">
            <mxPoint x="1676" y="1380" as="sourcePoint" />
            <mxPoint x="1647" y="1428" as="targetPoint" />
          </mxGeometry>
        </mxCell>
        <mxCell id="3jUxStKqnb5tfGaNxafw-22" value="" style="endArrow=classic;html=1;rounded=0;exitX=0.75;exitY=1;exitDx=0;exitDy=0;entryX=1;entryY=0.5;entryDx=0;entryDy=0;fillColor=#f5f5f5;gradientColor=#b3b3b3;strokeColor=#666666;" parent="1" target="3jUxStKqnb5tfGaNxafw-11" edge="1">
          <mxGeometry width="50" height="50" relative="1" as="geometry">
            <mxPoint x="1576" y="1360" as="sourcePoint" />
            <mxPoint x="1517" y="1393" as="targetPoint" />
          </mxGeometry>
        </mxCell>
        <mxCell id="3jUxStKqnb5tfGaNxafw-24" value="" style="edgeStyle=orthogonalEdgeStyle;rounded=0;orthogonalLoop=1;jettySize=auto;html=1;exitX=1;exitY=0.5;exitDx=0;exitDy=0;entryX=0;entryY=0.5;entryDx=0;entryDy=0;fillColor=#f5f5f5;gradientColor=#b3b3b3;strokeColor=#666666;" parent="1" source="3jUxStKqnb5tfGaNxafw-8" target="3jUxStKqnb5tfGaNxafw-14" edge="1">
          <mxGeometry relative="1" as="geometry">
            <mxPoint x="1676" y="1300" as="sourcePoint" />
            <mxPoint x="1646" y="1300" as="targetPoint" />
          </mxGeometry>
        </mxCell>
        <mxCell id="3jUxStKqnb5tfGaNxafw-25" value="" style="endArrow=classic;html=1;rounded=0;exitX=0.75;exitY=1;exitDx=0;exitDy=0;entryX=0.5;entryY=0;entryDx=0;entryDy=0;fillColor=#f5f5f5;gradientColor=#b3b3b3;strokeColor=#666666;" parent="1" target="3jUxStKqnb5tfGaNxafw-12" edge="1">
          <mxGeometry width="50" height="50" relative="1" as="geometry">
            <mxPoint x="1625" y="1380" as="sourcePoint" />
            <mxPoint x="1596" y="1428" as="targetPoint" />
          </mxGeometry>
        </mxCell>
        <mxCell id="3jUxStKqnb5tfGaNxafw-26" value="Editoriales" style="rounded=0;whiteSpace=wrap;html=1;fillColor=#dae8fc;gradientColor=#7ea6e0;strokeColor=#6c8ebf;" parent="1" vertex="1">
          <mxGeometry x="2006" y="1340" width="100" height="40" as="geometry" />
        </mxCell>
        <mxCell id="3jUxStKqnb5tfGaNxafw-27" value="Nombre" style="ellipse;whiteSpace=wrap;html=1;fillColor=#dae8fc;gradientColor=#7ea6e0;strokeColor=#6c8ebf;" parent="1" vertex="1">
          <mxGeometry x="1856" y="1340" width="120" height="40" as="geometry" />
        </mxCell>
        <mxCell id="3jUxStKqnb5tfGaNxafw-28" value="Id_Editorial" style="ellipse;shape=doubleEllipse;margin=3;whiteSpace=wrap;html=1;align=center;fillColor=#dae8fc;gradientColor=#7ea6e0;strokeColor=#6c8ebf;" parent="1" vertex="1">
          <mxGeometry x="2006" y="1410" width="100" height="40" as="geometry" />
        </mxCell>
        <mxCell id="3jUxStKqnb5tfGaNxafw-29" value="Direccion" style="ellipse;whiteSpace=wrap;html=1;fillColor=#dae8fc;gradientColor=#7ea6e0;strokeColor=#6c8ebf;" parent="1" vertex="1">
          <mxGeometry x="1856" y="1410" width="120" height="40" as="geometry" />
        </mxCell>
        <mxCell id="3jUxStKqnb5tfGaNxafw-30" value="Telefono" style="ellipse;whiteSpace=wrap;html=1;fillColor=#dae8fc;gradientColor=#7ea6e0;strokeColor=#6c8ebf;" parent="1" vertex="1">
          <mxGeometry x="2136" y="1340" width="120" height="40" as="geometry" />
        </mxCell>
        <mxCell id="3jUxStKqnb5tfGaNxafw-31" value="Email" style="ellipse;whiteSpace=wrap;html=1;fillColor=#dae8fc;gradientColor=#7ea6e0;strokeColor=#6c8ebf;" parent="1" vertex="1">
          <mxGeometry x="2136" y="1410" width="120" height="40" as="geometry" />
        </mxCell>
        <mxCell id="3jUxStKqnb5tfGaNxafw-32" value="" style="endArrow=classic;html=1;rounded=0;exitX=0.75;exitY=1;exitDx=0;exitDy=0;fillColor=#dae8fc;gradientColor=#7ea6e0;strokeColor=#6c8ebf;" parent="1" target="3jUxStKqnb5tfGaNxafw-29" edge="1">
          <mxGeometry width="50" height="50" relative="1" as="geometry">
            <mxPoint x="2006" y="1380" as="sourcePoint" />
            <mxPoint x="1977" y="1428" as="targetPoint" />
          </mxGeometry>
        </mxCell>
        <mxCell id="3jUxStKqnb5tfGaNxafw-33" value="" style="endArrow=classic;html=1;rounded=0;exitX=0.75;exitY=1;exitDx=0;exitDy=0;entryX=0;entryY=0;entryDx=0;entryDy=0;fillColor=#dae8fc;gradientColor=#7ea6e0;strokeColor=#6c8ebf;" parent="1" target="3jUxStKqnb5tfGaNxafw-31" edge="1">
          <mxGeometry width="50" height="50" relative="1" as="geometry">
            <mxPoint x="2106" y="1380" as="sourcePoint" />
            <mxPoint x="2077" y="1428" as="targetPoint" />
          </mxGeometry>
        </mxCell>
        <mxCell id="3jUxStKqnb5tfGaNxafw-34" value="" style="endArrow=classic;html=1;rounded=0;exitX=0.75;exitY=1;exitDx=0;exitDy=0;entryX=1;entryY=0.5;entryDx=0;entryDy=0;fillColor=#dae8fc;gradientColor=#7ea6e0;strokeColor=#6c8ebf;" parent="1" target="3jUxStKqnb5tfGaNxafw-27" edge="1">
          <mxGeometry width="50" height="50" relative="1" as="geometry">
            <mxPoint x="2006" y="1360" as="sourcePoint" />
            <mxPoint x="1947" y="1393" as="targetPoint" />
          </mxGeometry>
        </mxCell>
        <mxCell id="3jUxStKqnb5tfGaNxafw-35" value="" style="edgeStyle=orthogonalEdgeStyle;rounded=0;orthogonalLoop=1;jettySize=auto;html=1;exitX=1;exitY=0.5;exitDx=0;exitDy=0;entryX=0;entryY=0.5;entryDx=0;entryDy=0;fillColor=#dae8fc;gradientColor=#7ea6e0;strokeColor=#6c8ebf;" parent="1" source="3jUxStKqnb5tfGaNxafw-26" target="3jUxStKqnb5tfGaNxafw-30" edge="1">
          <mxGeometry relative="1" as="geometry">
            <mxPoint x="2106" y="1300" as="sourcePoint" />
            <mxPoint x="2076" y="1300" as="targetPoint" />
          </mxGeometry>
        </mxCell>
        <mxCell id="3jUxStKqnb5tfGaNxafw-36" value="" style="endArrow=classic;html=1;rounded=0;exitX=0.75;exitY=1;exitDx=0;exitDy=0;entryX=0.5;entryY=0;entryDx=0;entryDy=0;fillColor=#dae8fc;gradientColor=#7ea6e0;strokeColor=#6c8ebf;" parent="1" target="3jUxStKqnb5tfGaNxafw-28" edge="1">
          <mxGeometry width="50" height="50" relative="1" as="geometry">
            <mxPoint x="2055" y="1380" as="sourcePoint" />
            <mxPoint x="2026" y="1428" as="targetPoint" />
          </mxGeometry>
        </mxCell>
        <mxCell id="3jUxStKqnb5tfGaNxafw-37" value="Usuarios" style="rounded=0;whiteSpace=wrap;html=1;fillColor=#e6d0de;gradientColor=#d5739d;strokeColor=#996185;" parent="1" vertex="1">
          <mxGeometry x="2530" y="960" width="100" height="40" as="geometry" />
        </mxCell>
        <mxCell id="3jUxStKqnb5tfGaNxafw-38" value="Nombre" style="ellipse;whiteSpace=wrap;html=1;fillColor=#e6d0de;gradientColor=#d5739d;strokeColor=#996185;" parent="1" vertex="1">
          <mxGeometry x="2380" y="930" width="120" height="40" as="geometry" />
        </mxCell>
        <mxCell id="3jUxStKqnb5tfGaNxafw-39" value="Id_Usuario" style="ellipse;shape=doubleEllipse;margin=3;whiteSpace=wrap;html=1;align=center;fillColor=#e6d0de;gradientColor=#d5739d;strokeColor=#996185;" parent="1" vertex="1">
          <mxGeometry x="2530" y="1030" width="100" height="40" as="geometry" />
        </mxCell>
        <mxCell id="3jUxStKqnb5tfGaNxafw-40" value="Direccion" style="ellipse;whiteSpace=wrap;html=1;fillColor=#e6d0de;gradientColor=#d5739d;strokeColor=#996185;" parent="1" vertex="1">
          <mxGeometry x="2380" y="1030" width="120" height="40" as="geometry" />
        </mxCell>
        <mxCell id="3jUxStKqnb5tfGaNxafw-41" value="Telefono" style="ellipse;whiteSpace=wrap;html=1;fillColor=#e6d0de;gradientColor=#d5739d;strokeColor=#996185;" parent="1" vertex="1">
          <mxGeometry x="2660" y="960" width="120" height="40" as="geometry" />
        </mxCell>
        <mxCell id="3jUxStKqnb5tfGaNxafw-42" value="Email" style="ellipse;whiteSpace=wrap;html=1;fillColor=#e6d0de;gradientColor=#d5739d;strokeColor=#996185;" parent="1" vertex="1">
          <mxGeometry x="2660" y="1030" width="120" height="40" as="geometry" />
        </mxCell>
        <mxCell id="3jUxStKqnb5tfGaNxafw-43" value="" style="endArrow=classic;html=1;rounded=0;exitX=0.75;exitY=1;exitDx=0;exitDy=0;fillColor=#e6d0de;gradientColor=#d5739d;strokeColor=#996185;" parent="1" target="3jUxStKqnb5tfGaNxafw-40" edge="1">
          <mxGeometry width="50" height="50" relative="1" as="geometry">
            <mxPoint x="2530" y="1000" as="sourcePoint" />
            <mxPoint x="2501" y="1048" as="targetPoint" />
          </mxGeometry>
        </mxCell>
        <mxCell id="3jUxStKqnb5tfGaNxafw-44" value="" style="endArrow=classic;html=1;rounded=0;exitX=0.75;exitY=1;exitDx=0;exitDy=0;entryX=0;entryY=0;entryDx=0;entryDy=0;fillColor=#e6d0de;gradientColor=#d5739d;strokeColor=#996185;" parent="1" target="3jUxStKqnb5tfGaNxafw-42" edge="1">
          <mxGeometry width="50" height="50" relative="1" as="geometry">
            <mxPoint x="2630" y="1000" as="sourcePoint" />
            <mxPoint x="2601" y="1048" as="targetPoint" />
          </mxGeometry>
        </mxCell>
        <mxCell id="3jUxStKqnb5tfGaNxafw-45" value="" style="endArrow=classic;html=1;rounded=0;exitX=0.75;exitY=1;exitDx=0;exitDy=0;entryX=1;entryY=0.5;entryDx=0;entryDy=0;fillColor=#e6d0de;gradientColor=#d5739d;strokeColor=#996185;" parent="1" target="3jUxStKqnb5tfGaNxafw-38" edge="1">
          <mxGeometry width="50" height="50" relative="1" as="geometry">
            <mxPoint x="2530" y="980" as="sourcePoint" />
            <mxPoint x="2471" y="1013" as="targetPoint" />
          </mxGeometry>
        </mxCell>
        <mxCell id="3jUxStKqnb5tfGaNxafw-46" value="" style="edgeStyle=orthogonalEdgeStyle;rounded=0;orthogonalLoop=1;jettySize=auto;html=1;exitX=1;exitY=0.5;exitDx=0;exitDy=0;entryX=0;entryY=0.5;entryDx=0;entryDy=0;fillColor=#e6d0de;gradientColor=#d5739d;strokeColor=#996185;" parent="1" source="3jUxStKqnb5tfGaNxafw-37" target="3jUxStKqnb5tfGaNxafw-41" edge="1">
          <mxGeometry relative="1" as="geometry">
            <mxPoint x="2630" y="920" as="sourcePoint" />
            <mxPoint x="2600" y="920" as="targetPoint" />
          </mxGeometry>
        </mxCell>
        <mxCell id="3jUxStKqnb5tfGaNxafw-47" value="" style="endArrow=classic;html=1;rounded=0;exitX=0.75;exitY=1;exitDx=0;exitDy=0;entryX=0.5;entryY=0;entryDx=0;entryDy=0;fillColor=#e6d0de;gradientColor=#d5739d;strokeColor=#996185;" parent="1" target="3jUxStKqnb5tfGaNxafw-39" edge="1">
          <mxGeometry width="50" height="50" relative="1" as="geometry">
            <mxPoint x="2579" y="1000" as="sourcePoint" />
            <mxPoint x="2550" y="1048" as="targetPoint" />
          </mxGeometry>
        </mxCell>
        <mxCell id="3jUxStKqnb5tfGaNxafw-48" value="Prestamos" style="rounded=0;whiteSpace=wrap;html=1;fillColor=#d5e8d4;gradientColor=#97d077;strokeColor=#82b366;" parent="1" vertex="1">
          <mxGeometry x="2200" y="1153" width="100" height="40" as="geometry" />
        </mxCell>
        <mxCell id="3jUxStKqnb5tfGaNxafw-50" value="Id_Prestamo" style="ellipse;shape=doubleEllipse;margin=3;whiteSpace=wrap;html=1;align=center;fillColor=#d5e8d4;gradientColor=#97d077;strokeColor=#82b366;" parent="1" vertex="1">
          <mxGeometry x="2200" y="1223" width="100" height="40" as="geometry" />
        </mxCell>
        <mxCell id="3jUxStKqnb5tfGaNxafw-51" value="Fecha_Devolucion" style="ellipse;whiteSpace=wrap;html=1;fillColor=#d5e8d4;gradientColor=#97d077;strokeColor=#82b366;" parent="1" vertex="1">
          <mxGeometry x="2050" y="1223" width="120" height="40" as="geometry" />
        </mxCell>
        <mxCell id="3jUxStKqnb5tfGaNxafw-53" value="Fecha_Prestamo" style="ellipse;whiteSpace=wrap;html=1;fillColor=#d5e8d4;gradientColor=#97d077;strokeColor=#82b366;" parent="1" vertex="1">
          <mxGeometry x="2330" y="1223" width="120" height="40" as="geometry" />
        </mxCell>
        <mxCell id="3jUxStKqnb5tfGaNxafw-54" value="" style="endArrow=classic;html=1;rounded=0;exitX=0.75;exitY=1;exitDx=0;exitDy=0;fillColor=#d5e8d4;gradientColor=#97d077;strokeColor=#82b366;" parent="1" target="3jUxStKqnb5tfGaNxafw-51" edge="1">
          <mxGeometry width="50" height="50" relative="1" as="geometry">
            <mxPoint x="2200" y="1193" as="sourcePoint" />
            <mxPoint x="2171" y="1241" as="targetPoint" />
          </mxGeometry>
        </mxCell>
        <mxCell id="3jUxStKqnb5tfGaNxafw-55" value="" style="endArrow=classic;html=1;rounded=0;exitX=0.75;exitY=1;exitDx=0;exitDy=0;entryX=0;entryY=0;entryDx=0;entryDy=0;fillColor=#d5e8d4;gradientColor=#97d077;strokeColor=#82b366;" parent="1" target="3jUxStKqnb5tfGaNxafw-53" edge="1">
          <mxGeometry width="50" height="50" relative="1" as="geometry">
            <mxPoint x="2300" y="1193" as="sourcePoint" />
            <mxPoint x="2271" y="1241" as="targetPoint" />
          </mxGeometry>
        </mxCell>
        <mxCell id="3jUxStKqnb5tfGaNxafw-58" value="" style="endArrow=classic;html=1;rounded=0;exitX=0.75;exitY=1;exitDx=0;exitDy=0;entryX=0.5;entryY=0;entryDx=0;entryDy=0;fillColor=#d5e8d4;gradientColor=#97d077;strokeColor=#82b366;" parent="1" target="3jUxStKqnb5tfGaNxafw-50" edge="1">
          <mxGeometry width="50" height="50" relative="1" as="geometry">
            <mxPoint x="2249" y="1193" as="sourcePoint" />
            <mxPoint x="2220" y="1241" as="targetPoint" />
          </mxGeometry>
        </mxCell>
        <mxCell id="3jUxStKqnb5tfGaNxafw-59" value="" style="endArrow=classic;html=1;rounded=0;exitX=0.75;exitY=1;exitDx=0;exitDy=0;fillColor=#fad9d5;strokeColor=#ae4132;" parent="1" edge="1">
          <mxGeometry width="50" height="50" relative="1" as="geometry">
            <mxPoint x="1793" y="1073.5" as="sourcePoint" />
            <mxPoint x="1734" y="1106.5" as="targetPoint" />
          </mxGeometry>
        </mxCell>
        <mxCell id="3jUxStKqnb5tfGaNxafw-60" value="" style="endArrow=classic;html=1;rounded=0;exitX=0.75;exitY=1;exitDx=0;exitDy=0;entryX=0.593;entryY=-0.083;entryDx=0;entryDy=0;entryPerimeter=0;fillColor=#fad9d5;strokeColor=#ae4132;" parent="1" edge="1">
          <mxGeometry width="50" height="50" relative="1" as="geometry">
            <mxPoint x="1834" y="1073.8200000000002" as="sourcePoint" />
            <mxPoint x="1877.2999999999997" y="1106.5" as="targetPoint" />
          </mxGeometry>
        </mxCell>
        <mxCell id="3jUxStKqnb5tfGaNxafw-66" value="Id_Libro" style="ellipse;shape=doubleEllipse;margin=3;whiteSpace=wrap;html=1;align=center;fillColor=#d5e8d4;gradientColor=#97d077;strokeColor=#82b366;" parent="1" vertex="1">
          <mxGeometry x="2270" y="1083" width="100" height="40" as="geometry" />
        </mxCell>
        <mxCell id="3jUxStKqnb5tfGaNxafw-67" value="Id_Usuario" style="ellipse;shape=doubleEllipse;margin=3;whiteSpace=wrap;html=1;align=center;fillColor=#d5e8d4;gradientColor=#97d077;strokeColor=#82b366;" parent="1" vertex="1">
          <mxGeometry x="2120" y="1083" width="100" height="40" as="geometry" />
        </mxCell>
        <mxCell id="3jUxStKqnb5tfGaNxafw-68" value="Necesita" style="strokeWidth=2;html=1;shape=mxgraph.flowchart.decision;whiteSpace=wrap;fillColor=#d5e8d4;gradientColor=#97d077;strokeColor=#82b366;" parent="1" vertex="1">
          <mxGeometry x="2200" y="1020" width="100" height="40" as="geometry" />
        </mxCell>
        <mxCell id="3jUxStKqnb5tfGaNxafw-69" value="" style="endArrow=classic;html=1;rounded=0;exitX=0.75;exitY=1;exitDx=0;exitDy=0;fillColor=#d5e8d4;gradientColor=#97d077;strokeColor=#82b366;" parent="1" edge="1">
          <mxGeometry width="50" height="50" relative="1" as="geometry">
            <mxPoint x="2220" y="1050" as="sourcePoint" />
            <mxPoint x="2161" y="1083" as="targetPoint" />
          </mxGeometry>
        </mxCell>
        <mxCell id="3jUxStKqnb5tfGaNxafw-70" value="" style="endArrow=classic;html=1;rounded=0;exitX=0.75;exitY=1;exitDx=0;exitDy=0;entryX=0.593;entryY=-0.083;entryDx=0;entryDy=0;entryPerimeter=0;fillColor=#d5e8d4;gradientColor=#97d077;strokeColor=#82b366;" parent="1" edge="1">
          <mxGeometry width="50" height="50" relative="1" as="geometry">
            <mxPoint x="2280" y="1050.3200000000002" as="sourcePoint" />
            <mxPoint x="2323.2999999999997" y="1083" as="targetPoint" />
          </mxGeometry>
        </mxCell>
        <mxCell id="3jUxStKqnb5tfGaNxafw-71" value="" style="endArrow=classic;html=1;rounded=0;entryX=0.5;entryY=0;entryDx=0;entryDy=0;fillColor=#d5e8d4;gradientColor=#97d077;strokeColor=#82b366;" parent="1" target="3jUxStKqnb5tfGaNxafw-48" edge="1">
          <mxGeometry width="50" height="50" relative="1" as="geometry">
            <mxPoint x="2250" y="1063" as="sourcePoint" />
            <mxPoint x="2340" y="1133" as="targetPoint" />
          </mxGeometry>
        </mxCell>
        <mxCell id="3jUxStKqnb5tfGaNxafw-74" value="" style="endArrow=classic;html=1;rounded=0;exitX=0.5;exitY=1;exitDx=0;exitDy=0;entryX=0.5;entryY=0;entryDx=0;entryDy=0;entryPerimeter=0;fillColor=#fad9d5;strokeColor=#ae4132;" parent="1" source="ui4IRazxlRf7Joern0LO-2" target="3jUxStKqnb5tfGaNxafw-9" edge="1">
          <mxGeometry width="50" height="50" relative="1" as="geometry">
            <mxPoint x="1803.33" y="815" as="sourcePoint" />
            <mxPoint x="1814" y="1030" as="targetPoint" />
          </mxGeometry>
        </mxCell>
        <mxCell id="3jUxStKqnb5tfGaNxafw-75" value="Id_Editorial" style="ellipse;shape=doubleEllipse;margin=3;whiteSpace=wrap;html=1;align=center;fillColor=#fad9d5;strokeColor=#ae4132;" parent="1" vertex="1">
          <mxGeometry x="1844" y="1106.5" width="100" height="40" as="geometry" />
        </mxCell>
        <mxCell id="3jUxStKqnb5tfGaNxafw-76" value="Categorias" style="rounded=0;whiteSpace=wrap;html=1;fillColor=#76608a;fontColor=#ffffff;strokeColor=#432D57;" parent="1" vertex="1">
          <mxGeometry x="880" y="757" width="100" height="40" as="geometry" />
        </mxCell>
        <mxCell id="3jUxStKqnb5tfGaNxafw-77" value="Nombre" style="ellipse;whiteSpace=wrap;html=1;fillColor=#76608a;fontColor=#ffffff;strokeColor=#432D57;" parent="1" vertex="1">
          <mxGeometry x="730" y="757" width="120" height="40" as="geometry" />
        </mxCell>
        <mxCell id="3jUxStKqnb5tfGaNxafw-78" value="Id_Categoria" style="ellipse;shape=doubleEllipse;margin=3;whiteSpace=wrap;html=1;align=center;fillColor=#76608a;fontColor=#ffffff;strokeColor=#432D57;" parent="1" vertex="1">
          <mxGeometry x="880" y="827" width="100" height="40" as="geometry" />
        </mxCell>
        <mxCell id="3jUxStKqnb5tfGaNxafw-79" value="Area" style="ellipse;whiteSpace=wrap;html=1;fillColor=#76608a;fontColor=#ffffff;strokeColor=#432D57;" parent="1" vertex="1">
          <mxGeometry x="730" y="827" width="120" height="40" as="geometry" />
        </mxCell>
        <mxCell id="3jUxStKqnb5tfGaNxafw-80" value="Descripcion" style="ellipse;whiteSpace=wrap;html=1;fillColor=#76608a;fontColor=#ffffff;strokeColor=#432D57;" parent="1" vertex="1">
          <mxGeometry x="730" y="696" width="120" height="40" as="geometry" />
        </mxCell>
        <mxCell id="3jUxStKqnb5tfGaNxafw-81" value="Especialidad" style="ellipse;whiteSpace=wrap;html=1;fillColor=#76608a;fontColor=#ffffff;strokeColor=#432D57;" parent="1" vertex="1">
          <mxGeometry x="860" y="667" width="120" height="40" as="geometry" />
        </mxCell>
        <mxCell id="3jUxStKqnb5tfGaNxafw-82" value="" style="endArrow=classic;html=1;rounded=0;exitX=0.75;exitY=1;exitDx=0;exitDy=0;fillColor=#76608a;strokeColor=#432D57;" parent="1" target="3jUxStKqnb5tfGaNxafw-79" edge="1">
          <mxGeometry width="50" height="50" relative="1" as="geometry">
            <mxPoint x="880" y="797" as="sourcePoint" />
            <mxPoint x="851" y="845" as="targetPoint" />
          </mxGeometry>
        </mxCell>
        <mxCell id="3jUxStKqnb5tfGaNxafw-83" value="" style="endArrow=classic;html=1;rounded=0;exitX=0.413;exitY=-0.013;exitDx=0;exitDy=0;entryX=0.5;entryY=1;entryDx=0;entryDy=0;exitPerimeter=0;fillColor=#76608a;strokeColor=#432D57;" parent="1" source="3jUxStKqnb5tfGaNxafw-76" target="3jUxStKqnb5tfGaNxafw-81" edge="1">
          <mxGeometry width="50" height="50" relative="1" as="geometry">
            <mxPoint x="980" y="797" as="sourcePoint" />
            <mxPoint x="951" y="845" as="targetPoint" />
          </mxGeometry>
        </mxCell>
        <mxCell id="3jUxStKqnb5tfGaNxafw-84" value="" style="endArrow=classic;html=1;rounded=0;exitX=0.75;exitY=1;exitDx=0;exitDy=0;entryX=1;entryY=0.5;entryDx=0;entryDy=0;fillColor=#76608a;strokeColor=#432D57;" parent="1" target="3jUxStKqnb5tfGaNxafw-77" edge="1">
          <mxGeometry width="50" height="50" relative="1" as="geometry">
            <mxPoint x="880" y="777" as="sourcePoint" />
            <mxPoint x="821" y="810" as="targetPoint" />
          </mxGeometry>
        </mxCell>
        <mxCell id="3jUxStKqnb5tfGaNxafw-86" value="" style="endArrow=classic;html=1;rounded=0;exitX=0.75;exitY=1;exitDx=0;exitDy=0;entryX=0.5;entryY=0;entryDx=0;entryDy=0;fillColor=#76608a;strokeColor=#432D57;" parent="1" target="3jUxStKqnb5tfGaNxafw-78" edge="1">
          <mxGeometry width="50" height="50" relative="1" as="geometry">
            <mxPoint x="929" y="797" as="sourcePoint" />
            <mxPoint x="900" y="845" as="targetPoint" />
          </mxGeometry>
        </mxCell>
        <mxCell id="3jUxStKqnb5tfGaNxafw-87" value="Libros_Categorias" style="rounded=0;whiteSpace=wrap;html=1;fillColor=#6d8764;fontColor=#ffffff;strokeColor=#3A5431;" parent="1" vertex="1">
          <mxGeometry x="1326" y="620" width="100" height="40" as="geometry" />
        </mxCell>
        <mxCell id="3jUxStKqnb5tfGaNxafw-88" value="Id_Libro, Id_Categoria" style="ellipse;shape=doubleEllipse;margin=3;whiteSpace=wrap;html=1;align=center;fillColor=#6d8764;fontColor=#ffffff;strokeColor=#3A5431;" parent="1" vertex="1">
          <mxGeometry x="1326" y="540" width="100" height="40" as="geometry" />
        </mxCell>
        <mxCell id="3jUxStKqnb5tfGaNxafw-89" value="Fecha_Asignacion" style="ellipse;whiteSpace=wrap;html=1;fillColor=#6d8764;fontColor=#ffffff;strokeColor=#3A5431;" parent="1" vertex="1">
          <mxGeometry x="1176" y="690" width="120" height="40" as="geometry" />
        </mxCell>
        <mxCell id="3jUxStKqnb5tfGaNxafw-90" value="Comentarios" style="ellipse;whiteSpace=wrap;html=1;fillColor=#6d8764;fontColor=#ffffff;strokeColor=#3A5431;" parent="1" vertex="1">
          <mxGeometry x="1456" y="690" width="120" height="40" as="geometry" />
        </mxCell>
        <mxCell id="3jUxStKqnb5tfGaNxafw-91" value="" style="endArrow=classic;html=1;rounded=0;exitX=0.75;exitY=1;exitDx=0;exitDy=0;fillColor=#6d8764;strokeColor=#3A5431;" parent="1" target="3jUxStKqnb5tfGaNxafw-89" edge="1">
          <mxGeometry width="50" height="50" relative="1" as="geometry">
            <mxPoint x="1326" y="660" as="sourcePoint" />
            <mxPoint x="1297" y="708" as="targetPoint" />
          </mxGeometry>
        </mxCell>
        <mxCell id="3jUxStKqnb5tfGaNxafw-92" value="" style="endArrow=classic;html=1;rounded=0;exitX=0.75;exitY=1;exitDx=0;exitDy=0;entryX=0;entryY=0;entryDx=0;entryDy=0;fillColor=#6d8764;strokeColor=#3A5431;" parent="1" target="3jUxStKqnb5tfGaNxafw-90" edge="1">
          <mxGeometry width="50" height="50" relative="1" as="geometry">
            <mxPoint x="1426" y="660" as="sourcePoint" />
            <mxPoint x="1397" y="708" as="targetPoint" />
          </mxGeometry>
        </mxCell>
        <mxCell id="3jUxStKqnb5tfGaNxafw-93" value="" style="endArrow=classic;html=1;rounded=0;entryX=0.5;entryY=1;entryDx=0;entryDy=0;fillColor=#6d8764;strokeColor=#3A5431;" parent="1" target="3jUxStKqnb5tfGaNxafw-88" edge="1">
          <mxGeometry width="50" height="50" relative="1" as="geometry">
            <mxPoint x="1376" y="620" as="sourcePoint" />
            <mxPoint x="1346" y="708" as="targetPoint" />
          </mxGeometry>
        </mxCell>
        <mxCell id="3jUxStKqnb5tfGaNxafw-94" value="Id_Categoria" style="ellipse;shape=doubleEllipse;margin=3;whiteSpace=wrap;html=1;align=center;fillColor=#6d8764;fontColor=#ffffff;strokeColor=#3A5431;" parent="1" vertex="1">
          <mxGeometry x="1396" y="817" width="100" height="40" as="geometry" />
        </mxCell>
        <mxCell id="3jUxStKqnb5tfGaNxafw-95" value="Id_Libro" style="ellipse;shape=doubleEllipse;margin=3;whiteSpace=wrap;html=1;align=center;fillColor=#6d8764;fontColor=#ffffff;strokeColor=#3A5431;" parent="1" vertex="1">
          <mxGeometry x="1246" y="817" width="100" height="40" as="geometry" />
        </mxCell>
        <mxCell id="3jUxStKqnb5tfGaNxafw-96" value="Necesita" style="strokeWidth=2;html=1;shape=mxgraph.flowchart.decision;whiteSpace=wrap;fillColor=#6d8764;fontColor=#ffffff;strokeColor=#3A5431;" parent="1" vertex="1">
          <mxGeometry x="1326" y="757" width="100" height="40" as="geometry" />
        </mxCell>
        <mxCell id="3jUxStKqnb5tfGaNxafw-97" value="" style="endArrow=classic;html=1;rounded=0;exitX=0.75;exitY=1;exitDx=0;exitDy=0;fillColor=#6d8764;strokeColor=#3A5431;" parent="1" edge="1">
          <mxGeometry width="50" height="50" relative="1" as="geometry">
            <mxPoint x="1346" y="784" as="sourcePoint" />
            <mxPoint x="1287" y="817" as="targetPoint" />
          </mxGeometry>
        </mxCell>
        <mxCell id="3jUxStKqnb5tfGaNxafw-98" value="" style="endArrow=classic;html=1;rounded=0;exitX=0.75;exitY=1;exitDx=0;exitDy=0;entryX=0.593;entryY=-0.083;entryDx=0;entryDy=0;entryPerimeter=0;fillColor=#6d8764;strokeColor=#3A5431;" parent="1" edge="1">
          <mxGeometry width="50" height="50" relative="1" as="geometry">
            <mxPoint x="1406" y="784.32" as="sourcePoint" />
            <mxPoint x="1449.2999999999997" y="816.9999999999999" as="targetPoint" />
          </mxGeometry>
        </mxCell>
        <mxCell id="3jUxStKqnb5tfGaNxafw-100" value="Importancia" style="ellipse;whiteSpace=wrap;html=1;fillColor=#6d8764;fontColor=#ffffff;strokeColor=#3A5431;" parent="1" vertex="1">
          <mxGeometry x="1456" y="620" width="120" height="40" as="geometry" />
        </mxCell>
        <mxCell id="3jUxStKqnb5tfGaNxafw-101" value="" style="edgeStyle=orthogonalEdgeStyle;rounded=0;orthogonalLoop=1;jettySize=auto;html=1;exitX=1;exitY=0.5;exitDx=0;exitDy=0;entryX=0;entryY=0.5;entryDx=0;entryDy=0;fillColor=#6d8764;strokeColor=#3A5431;" parent="1" edge="1">
          <mxGeometry relative="1" as="geometry">
            <mxPoint x="1426" y="639.89" as="sourcePoint" />
            <mxPoint x="1456" y="639.89" as="targetPoint" />
          </mxGeometry>
        </mxCell>
        <mxCell id="lofzMnTzEdRTd5K9Z9km-20" value="" style="edgeStyle=orthogonalEdgeStyle;rounded=0;orthogonalLoop=1;jettySize=auto;html=1;fillColor=#e6d0de;gradientColor=#d5739d;strokeColor=#996185;" parent="1" source="3jUxStKqnb5tfGaNxafw-102" target="3jUxStKqnb5tfGaNxafw-104" edge="1">
          <mxGeometry relative="1" as="geometry" />
        </mxCell>
        <mxCell id="3jUxStKqnb5tfGaNxafw-102" value="Empleados" style="rounded=0;whiteSpace=wrap;html=1;fillColor=#e6d0de;gradientColor=#d5739d;strokeColor=#996185;" parent="1" vertex="1">
          <mxGeometry x="500" y="1065" width="100" height="40" as="geometry" />
        </mxCell>
        <mxCell id="3jUxStKqnb5tfGaNxafw-103" value="Nombre" style="ellipse;whiteSpace=wrap;html=1;fillColor=#e6d0de;gradientColor=#d5739d;strokeColor=#996185;" parent="1" vertex="1">
          <mxGeometry x="350" y="1065" width="120" height="40" as="geometry" />
        </mxCell>
        <mxCell id="3jUxStKqnb5tfGaNxafw-104" value="Id_Empleado" style="ellipse;shape=doubleEllipse;margin=3;whiteSpace=wrap;html=1;align=center;fillColor=#e6d0de;gradientColor=#d5739d;strokeColor=#996185;" parent="1" vertex="1">
          <mxGeometry x="500" y="980" width="100" height="40" as="geometry" />
        </mxCell>
        <mxCell id="3jUxStKqnb5tfGaNxafw-105" value="Puesto" style="ellipse;whiteSpace=wrap;html=1;fillColor=#e6d0de;gradientColor=#d5739d;strokeColor=#996185;" parent="1" vertex="1">
          <mxGeometry x="350" y="1135" width="120" height="40" as="geometry" />
        </mxCell>
        <mxCell id="3jUxStKqnb5tfGaNxafw-106" value="Fecha_Contratacion" style="ellipse;whiteSpace=wrap;html=1;fillColor=#e6d0de;gradientColor=#d5739d;strokeColor=#996185;" parent="1" vertex="1">
          <mxGeometry x="630" y="1065" width="120" height="40" as="geometry" />
        </mxCell>
        <mxCell id="3jUxStKqnb5tfGaNxafw-107" value="Salario" style="ellipse;whiteSpace=wrap;html=1;fillColor=#e6d0de;gradientColor=#d5739d;strokeColor=#996185;" parent="1" vertex="1">
          <mxGeometry x="630" y="1135" width="120" height="40" as="geometry" />
        </mxCell>
        <mxCell id="3jUxStKqnb5tfGaNxafw-108" value="" style="endArrow=classic;html=1;rounded=0;exitX=0.75;exitY=1;exitDx=0;exitDy=0;fillColor=#e6d0de;gradientColor=#d5739d;strokeColor=#996185;" parent="1" target="3jUxStKqnb5tfGaNxafw-105" edge="1">
          <mxGeometry width="50" height="50" relative="1" as="geometry">
            <mxPoint x="500" y="1105" as="sourcePoint" />
            <mxPoint x="471" y="1153" as="targetPoint" />
          </mxGeometry>
        </mxCell>
        <mxCell id="3jUxStKqnb5tfGaNxafw-109" value="" style="endArrow=classic;html=1;rounded=0;exitX=0.75;exitY=1;exitDx=0;exitDy=0;entryX=0;entryY=0;entryDx=0;entryDy=0;fillColor=#e6d0de;gradientColor=#d5739d;strokeColor=#996185;" parent="1" target="3jUxStKqnb5tfGaNxafw-107" edge="1">
          <mxGeometry width="50" height="50" relative="1" as="geometry">
            <mxPoint x="600" y="1105" as="sourcePoint" />
            <mxPoint x="571" y="1153" as="targetPoint" />
          </mxGeometry>
        </mxCell>
        <mxCell id="3jUxStKqnb5tfGaNxafw-110" value="" style="endArrow=classic;html=1;rounded=0;exitX=0.75;exitY=1;exitDx=0;exitDy=0;entryX=1;entryY=0.5;entryDx=0;entryDy=0;fillColor=#e6d0de;gradientColor=#d5739d;strokeColor=#996185;" parent="1" target="3jUxStKqnb5tfGaNxafw-103" edge="1">
          <mxGeometry width="50" height="50" relative="1" as="geometry">
            <mxPoint x="500" y="1085" as="sourcePoint" />
            <mxPoint x="441" y="1118" as="targetPoint" />
          </mxGeometry>
        </mxCell>
        <mxCell id="3jUxStKqnb5tfGaNxafw-111" value="" style="edgeStyle=orthogonalEdgeStyle;rounded=0;orthogonalLoop=1;jettySize=auto;html=1;exitX=1;exitY=0.5;exitDx=0;exitDy=0;entryX=0;entryY=0.5;entryDx=0;entryDy=0;fillColor=#e6d0de;gradientColor=#d5739d;strokeColor=#996185;" parent="1" source="3jUxStKqnb5tfGaNxafw-102" target="3jUxStKqnb5tfGaNxafw-106" edge="1">
          <mxGeometry relative="1" as="geometry">
            <mxPoint x="600" y="1025" as="sourcePoint" />
            <mxPoint x="570" y="1025" as="targetPoint" />
          </mxGeometry>
        </mxCell>
        <mxCell id="3jUxStKqnb5tfGaNxafw-113" value="Eventos" style="rounded=0;whiteSpace=wrap;html=1;fillColor=#b0e3e6;strokeColor=#0e8088;" parent="1" vertex="1">
          <mxGeometry x="2960" y="747" width="100" height="40" as="geometry" />
        </mxCell>
        <mxCell id="3jUxStKqnb5tfGaNxafw-114" value="Nombre" style="ellipse;whiteSpace=wrap;html=1;fillColor=#b0e3e6;strokeColor=#0e8088;" parent="1" vertex="1">
          <mxGeometry x="2810" y="747" width="120" height="40" as="geometry" />
        </mxCell>
        <mxCell id="3jUxStKqnb5tfGaNxafw-115" value="Id_Evento" style="ellipse;shape=doubleEllipse;margin=3;whiteSpace=wrap;html=1;align=center;fillColor=#b0e3e6;strokeColor=#0e8088;" parent="1" vertex="1">
          <mxGeometry x="2960" y="650" width="100" height="40" as="geometry" />
        </mxCell>
        <mxCell id="3jUxStKqnb5tfGaNxafw-116" value="Descripcion" style="ellipse;whiteSpace=wrap;html=1;fillColor=#b0e3e6;strokeColor=#0e8088;" parent="1" vertex="1">
          <mxGeometry x="2810" y="817" width="120" height="40" as="geometry" />
        </mxCell>
        <mxCell id="3jUxStKqnb5tfGaNxafw-117" value="Fecha" style="ellipse;whiteSpace=wrap;html=1;fillColor=#b0e3e6;strokeColor=#0e8088;" parent="1" vertex="1">
          <mxGeometry x="3090" y="747" width="120" height="40" as="geometry" />
        </mxCell>
        <mxCell id="3jUxStKqnb5tfGaNxafw-118" value="Ubicacion" style="ellipse;whiteSpace=wrap;html=1;fillColor=#b0e3e6;strokeColor=#0e8088;" parent="1" vertex="1">
          <mxGeometry x="3090" y="817" width="120" height="40" as="geometry" />
        </mxCell>
        <mxCell id="3jUxStKqnb5tfGaNxafw-119" value="" style="endArrow=classic;html=1;rounded=0;exitX=0.75;exitY=1;exitDx=0;exitDy=0;fillColor=#b0e3e6;strokeColor=#0e8088;" parent="1" target="3jUxStKqnb5tfGaNxafw-116" edge="1">
          <mxGeometry width="50" height="50" relative="1" as="geometry">
            <mxPoint x="2960" y="787" as="sourcePoint" />
            <mxPoint x="2931" y="835" as="targetPoint" />
          </mxGeometry>
        </mxCell>
        <mxCell id="3jUxStKqnb5tfGaNxafw-120" value="" style="endArrow=classic;html=1;rounded=0;exitX=0.75;exitY=1;exitDx=0;exitDy=0;entryX=0;entryY=0;entryDx=0;entryDy=0;fillColor=#b0e3e6;strokeColor=#0e8088;" parent="1" target="3jUxStKqnb5tfGaNxafw-118" edge="1">
          <mxGeometry width="50" height="50" relative="1" as="geometry">
            <mxPoint x="3060" y="787" as="sourcePoint" />
            <mxPoint x="3031" y="835" as="targetPoint" />
          </mxGeometry>
        </mxCell>
        <mxCell id="3jUxStKqnb5tfGaNxafw-121" value="" style="endArrow=classic;html=1;rounded=0;exitX=0.75;exitY=1;exitDx=0;exitDy=0;entryX=1;entryY=0.5;entryDx=0;entryDy=0;fillColor=#b0e3e6;strokeColor=#0e8088;" parent="1" target="3jUxStKqnb5tfGaNxafw-114" edge="1">
          <mxGeometry width="50" height="50" relative="1" as="geometry">
            <mxPoint x="2960" y="767" as="sourcePoint" />
            <mxPoint x="2901" y="800" as="targetPoint" />
          </mxGeometry>
        </mxCell>
        <mxCell id="3jUxStKqnb5tfGaNxafw-122" value="" style="edgeStyle=orthogonalEdgeStyle;rounded=0;orthogonalLoop=1;jettySize=auto;html=1;exitX=1;exitY=0.5;exitDx=0;exitDy=0;entryX=0;entryY=0.5;entryDx=0;entryDy=0;fillColor=#b0e3e6;strokeColor=#0e8088;" parent="1" source="3jUxStKqnb5tfGaNxafw-113" target="3jUxStKqnb5tfGaNxafw-117" edge="1">
          <mxGeometry relative="1" as="geometry">
            <mxPoint x="3060" y="707" as="sourcePoint" />
            <mxPoint x="3030" y="707" as="targetPoint" />
          </mxGeometry>
        </mxCell>
        <mxCell id="3jUxStKqnb5tfGaNxafw-123" value="" style="endArrow=classic;html=1;rounded=0;fillColor=#b0e3e6;strokeColor=#0e8088;" parent="1" edge="1">
          <mxGeometry width="50" height="50" relative="1" as="geometry">
            <mxPoint x="3010" y="750" as="sourcePoint" />
            <mxPoint x="3010" y="690" as="targetPoint" />
          </mxGeometry>
        </mxCell>
        <mxCell id="3jUxStKqnb5tfGaNxafw-135" value="Participaciones" style="rounded=0;whiteSpace=wrap;html=1;fillColor=#fff2cc;strokeColor=#d6b656;gradientColor=#ffd966;" parent="1" vertex="1">
          <mxGeometry x="2960" y="1020" width="100" height="40" as="geometry" />
        </mxCell>
        <mxCell id="3jUxStKqnb5tfGaNxafw-136" value="Id_Evento, Id_Usuario" style="ellipse;shape=doubleEllipse;margin=3;whiteSpace=wrap;html=1;align=center;fillColor=#fff2cc;strokeColor=#d6b656;gradientColor=#ffd966;" parent="1" vertex="1">
          <mxGeometry x="2960" y="1090" width="100" height="40" as="geometry" />
        </mxCell>
        <mxCell id="3jUxStKqnb5tfGaNxafw-137" value="Feedback" style="ellipse;whiteSpace=wrap;html=1;fillColor=#fff2cc;strokeColor=#d6b656;gradientColor=#ffd966;" parent="1" vertex="1">
          <mxGeometry x="2810" y="1090" width="120" height="40" as="geometry" />
        </mxCell>
        <mxCell id="3jUxStKqnb5tfGaNxafw-138" value="Fecha_Participacion" style="ellipse;whiteSpace=wrap;html=1;fillColor=#fff2cc;strokeColor=#d6b656;gradientColor=#ffd966;" parent="1" vertex="1">
          <mxGeometry x="3090" y="1090" width="120" height="40" as="geometry" />
        </mxCell>
        <mxCell id="3jUxStKqnb5tfGaNxafw-139" value="" style="endArrow=classic;html=1;rounded=0;exitX=0.75;exitY=1;exitDx=0;exitDy=0;fillColor=#fff2cc;strokeColor=#d6b656;gradientColor=#ffd966;" parent="1" target="3jUxStKqnb5tfGaNxafw-137" edge="1">
          <mxGeometry width="50" height="50" relative="1" as="geometry">
            <mxPoint x="2960" y="1060" as="sourcePoint" />
            <mxPoint x="2931" y="1108" as="targetPoint" />
          </mxGeometry>
        </mxCell>
        <mxCell id="3jUxStKqnb5tfGaNxafw-140" value="" style="endArrow=classic;html=1;rounded=0;exitX=0.75;exitY=1;exitDx=0;exitDy=0;entryX=0;entryY=0;entryDx=0;entryDy=0;fillColor=#fff2cc;strokeColor=#d6b656;gradientColor=#ffd966;" parent="1" target="3jUxStKqnb5tfGaNxafw-138" edge="1">
          <mxGeometry width="50" height="50" relative="1" as="geometry">
            <mxPoint x="3060" y="1060" as="sourcePoint" />
            <mxPoint x="3031" y="1108" as="targetPoint" />
          </mxGeometry>
        </mxCell>
        <mxCell id="3jUxStKqnb5tfGaNxafw-141" value="" style="endArrow=classic;html=1;rounded=0;exitX=0.75;exitY=1;exitDx=0;exitDy=0;entryX=0.5;entryY=0;entryDx=0;entryDy=0;fillColor=#fff2cc;strokeColor=#d6b656;gradientColor=#ffd966;" parent="1" target="3jUxStKqnb5tfGaNxafw-136" edge="1">
          <mxGeometry width="50" height="50" relative="1" as="geometry">
            <mxPoint x="3009" y="1060" as="sourcePoint" />
            <mxPoint x="2980" y="1108" as="targetPoint" />
          </mxGeometry>
        </mxCell>
        <mxCell id="3jUxStKqnb5tfGaNxafw-142" value="Id_Usuario" style="ellipse;shape=doubleEllipse;margin=3;whiteSpace=wrap;html=1;align=center;fillColor=#fff2cc;strokeColor=#d6b656;gradientColor=#ffd966;" parent="1" vertex="1">
          <mxGeometry x="3030" y="950" width="100" height="40" as="geometry" />
        </mxCell>
        <mxCell id="3jUxStKqnb5tfGaNxafw-143" value="Id_Evento" style="ellipse;shape=doubleEllipse;margin=3;whiteSpace=wrap;html=1;align=center;fillColor=#fff2cc;strokeColor=#d6b656;gradientColor=#ffd966;" parent="1" vertex="1">
          <mxGeometry x="2880" y="950" width="100" height="40" as="geometry" />
        </mxCell>
        <mxCell id="3jUxStKqnb5tfGaNxafw-144" value="Quien participa y en que evento" style="strokeWidth=2;html=1;shape=mxgraph.flowchart.decision;whiteSpace=wrap;fillColor=#fff2cc;strokeColor=#d6b656;gradientColor=#ffd966;" parent="1" vertex="1">
          <mxGeometry x="2960" y="890" width="100" height="40" as="geometry" />
        </mxCell>
        <mxCell id="3jUxStKqnb5tfGaNxafw-145" value="" style="endArrow=classic;html=1;rounded=0;exitX=0.75;exitY=1;exitDx=0;exitDy=0;fillColor=#fff2cc;strokeColor=#d6b656;gradientColor=#ffd966;" parent="1" edge="1">
          <mxGeometry width="50" height="50" relative="1" as="geometry">
            <mxPoint x="2980" y="917" as="sourcePoint" />
            <mxPoint x="2921" y="950" as="targetPoint" />
          </mxGeometry>
        </mxCell>
        <mxCell id="3jUxStKqnb5tfGaNxafw-146" value="" style="endArrow=classic;html=1;rounded=0;exitX=0.75;exitY=1;exitDx=0;exitDy=0;entryX=0.593;entryY=-0.083;entryDx=0;entryDy=0;entryPerimeter=0;fillColor=#fff2cc;strokeColor=#d6b656;gradientColor=#ffd966;" parent="1" edge="1">
          <mxGeometry width="50" height="50" relative="1" as="geometry">
            <mxPoint x="3040" y="917.32" as="sourcePoint" />
            <mxPoint x="3083.2999999999997" y="949.9999999999999" as="targetPoint" />
          </mxGeometry>
        </mxCell>
        <mxCell id="3jUxStKqnb5tfGaNxafw-147" value="" style="endArrow=classic;html=1;rounded=0;fillColor=#fff2cc;gradientColor=#ffd966;strokeColor=#d6b656;" parent="1" edge="1">
          <mxGeometry width="50" height="50" relative="1" as="geometry">
            <mxPoint x="3010" y="930" as="sourcePoint" />
            <mxPoint x="3010" y="930" as="targetPoint" />
            <Array as="points">
              <mxPoint x="3010" y="1020" />
            </Array>
          </mxGeometry>
        </mxCell>
        <mxCell id="3jUxStKqnb5tfGaNxafw-148" value="Rol" style="ellipse;whiteSpace=wrap;html=1;fillColor=#fff2cc;strokeColor=#d6b656;gradientColor=#ffd966;" parent="1" vertex="1">
          <mxGeometry x="3090" y="1020" width="120" height="40" as="geometry" />
        </mxCell>
        <mxCell id="3jUxStKqnb5tfGaNxafw-149" value="" style="edgeStyle=orthogonalEdgeStyle;rounded=0;orthogonalLoop=1;jettySize=auto;html=1;exitX=1;exitY=0.5;exitDx=0;exitDy=0;entryX=0;entryY=0.5;entryDx=0;entryDy=0;fillColor=#fff2cc;strokeColor=#d6b656;gradientColor=#ffd966;" parent="1" edge="1">
          <mxGeometry relative="1" as="geometry">
            <mxPoint x="3060" y="1039.8899999999999" as="sourcePoint" />
            <mxPoint x="3090" y="1039.8899999999999" as="targetPoint" />
          </mxGeometry>
        </mxCell>
        <mxCell id="3jUxStKqnb5tfGaNxafw-150" value="Proveedores" style="rounded=0;whiteSpace=wrap;html=1;fillColor=#b0e3e6;strokeColor=#0e8088;" parent="1" vertex="1">
          <mxGeometry x="983" y="995" width="100" height="40" as="geometry" />
        </mxCell>
        <mxCell id="3jUxStKqnb5tfGaNxafw-151" value="Nombre" style="ellipse;whiteSpace=wrap;html=1;fillColor=#b0e3e6;strokeColor=#0e8088;" parent="1" vertex="1">
          <mxGeometry x="833" y="995" width="120" height="40" as="geometry" />
        </mxCell>
        <mxCell id="3jUxStKqnb5tfGaNxafw-152" value="Id_Proveedor" style="ellipse;shape=doubleEllipse;margin=3;whiteSpace=wrap;html=1;align=center;fillColor=#b0e3e6;strokeColor=#0e8088;" parent="1" vertex="1">
          <mxGeometry x="983" y="1065" width="100" height="40" as="geometry" />
        </mxCell>
        <mxCell id="3jUxStKqnb5tfGaNxafw-153" value="Direccion" style="ellipse;whiteSpace=wrap;html=1;fillColor=#b0e3e6;strokeColor=#0e8088;" parent="1" vertex="1">
          <mxGeometry x="833" y="1065" width="120" height="40" as="geometry" />
        </mxCell>
        <mxCell id="3jUxStKqnb5tfGaNxafw-154" value="Email" style="ellipse;whiteSpace=wrap;html=1;fillColor=#b0e3e6;strokeColor=#0e8088;" parent="1" vertex="1">
          <mxGeometry x="1113" y="995" width="120" height="40" as="geometry" />
        </mxCell>
        <mxCell id="3jUxStKqnb5tfGaNxafw-155" value="Telefono" style="ellipse;whiteSpace=wrap;html=1;fillColor=#b0e3e6;strokeColor=#0e8088;" parent="1" vertex="1">
          <mxGeometry x="1113" y="1065" width="120" height="40" as="geometry" />
        </mxCell>
        <mxCell id="3jUxStKqnb5tfGaNxafw-156" value="" style="endArrow=classic;html=1;rounded=0;exitX=0.75;exitY=1;exitDx=0;exitDy=0;fillColor=#b0e3e6;strokeColor=#0e8088;" parent="1" target="3jUxStKqnb5tfGaNxafw-153" edge="1">
          <mxGeometry width="50" height="50" relative="1" as="geometry">
            <mxPoint x="983" y="1035" as="sourcePoint" />
            <mxPoint x="954" y="1083" as="targetPoint" />
          </mxGeometry>
        </mxCell>
        <mxCell id="3jUxStKqnb5tfGaNxafw-157" value="" style="endArrow=classic;html=1;rounded=0;exitX=0.75;exitY=1;exitDx=0;exitDy=0;entryX=0;entryY=0;entryDx=0;entryDy=0;fillColor=#b0e3e6;strokeColor=#0e8088;" parent="1" target="3jUxStKqnb5tfGaNxafw-155" edge="1">
          <mxGeometry width="50" height="50" relative="1" as="geometry">
            <mxPoint x="1083" y="1035" as="sourcePoint" />
            <mxPoint x="1054" y="1083" as="targetPoint" />
          </mxGeometry>
        </mxCell>
        <mxCell id="3jUxStKqnb5tfGaNxafw-158" value="" style="endArrow=classic;html=1;rounded=0;exitX=0.75;exitY=1;exitDx=0;exitDy=0;entryX=1;entryY=0.5;entryDx=0;entryDy=0;fillColor=#b0e3e6;strokeColor=#0e8088;" parent="1" target="3jUxStKqnb5tfGaNxafw-151" edge="1">
          <mxGeometry width="50" height="50" relative="1" as="geometry">
            <mxPoint x="983" y="1015" as="sourcePoint" />
            <mxPoint x="924" y="1048" as="targetPoint" />
          </mxGeometry>
        </mxCell>
        <mxCell id="3jUxStKqnb5tfGaNxafw-159" value="" style="edgeStyle=orthogonalEdgeStyle;rounded=0;orthogonalLoop=1;jettySize=auto;html=1;exitX=1;exitY=0.5;exitDx=0;exitDy=0;entryX=0;entryY=0.5;entryDx=0;entryDy=0;fillColor=#b0e3e6;strokeColor=#0e8088;" parent="1" source="3jUxStKqnb5tfGaNxafw-150" target="3jUxStKqnb5tfGaNxafw-154" edge="1">
          <mxGeometry relative="1" as="geometry">
            <mxPoint x="1083" y="955" as="sourcePoint" />
            <mxPoint x="1053" y="955" as="targetPoint" />
          </mxGeometry>
        </mxCell>
        <mxCell id="3jUxStKqnb5tfGaNxafw-160" value="" style="endArrow=classic;html=1;rounded=0;exitX=0.75;exitY=1;exitDx=0;exitDy=0;entryX=0.5;entryY=0;entryDx=0;entryDy=0;fillColor=#b0e3e6;strokeColor=#0e8088;" parent="1" target="3jUxStKqnb5tfGaNxafw-152" edge="1">
          <mxGeometry width="50" height="50" relative="1" as="geometry">
            <mxPoint x="1032" y="1035" as="sourcePoint" />
            <mxPoint x="1003" y="1083" as="targetPoint" />
          </mxGeometry>
        </mxCell>
        <mxCell id="3jUxStKqnb5tfGaNxafw-161" value="Compras" style="rounded=0;whiteSpace=wrap;html=1;fillColor=#a0522d;fontColor=#ffffff;strokeColor=#6D1F00;" parent="1" vertex="1">
          <mxGeometry x="1363" y="1041" width="100" height="40" as="geometry" />
        </mxCell>
        <mxCell id="3jUxStKqnb5tfGaNxafw-162" value="Id_Compra" style="ellipse;shape=doubleEllipse;margin=3;whiteSpace=wrap;html=1;align=center;fillColor=#a0522d;fontColor=#ffffff;strokeColor=#6D1F00;" parent="1" vertex="1">
          <mxGeometry x="1503" y="1041" width="100" height="40" as="geometry" />
        </mxCell>
        <mxCell id="3jUxStKqnb5tfGaNxafw-163" value="Cantidad" style="ellipse;whiteSpace=wrap;html=1;fillColor=#a0522d;fontColor=#ffffff;strokeColor=#6D1F00;" parent="1" vertex="1">
          <mxGeometry x="1353" y="1120" width="120" height="40" as="geometry" />
        </mxCell>
        <mxCell id="3jUxStKqnb5tfGaNxafw-164" value="Fecha_Compra" style="ellipse;whiteSpace=wrap;html=1;fillColor=#a0522d;fontColor=#ffffff;strokeColor=#6D1F00;" parent="1" vertex="1">
          <mxGeometry x="1493" y="1111" width="120" height="40" as="geometry" />
        </mxCell>
        <mxCell id="3jUxStKqnb5tfGaNxafw-165" value="" style="endArrow=classic;html=1;rounded=0;exitX=0.5;exitY=1;exitDx=0;exitDy=0;fillColor=#a0522d;strokeColor=#6D1F00;" parent="1" source="3jUxStKqnb5tfGaNxafw-161" target="3jUxStKqnb5tfGaNxafw-163" edge="1">
          <mxGeometry width="50" height="50" relative="1" as="geometry">
            <mxPoint x="1363" y="1081" as="sourcePoint" />
            <mxPoint x="1334" y="1129" as="targetPoint" />
          </mxGeometry>
        </mxCell>
        <mxCell id="3jUxStKqnb5tfGaNxafw-166" value="" style="endArrow=classic;html=1;rounded=0;exitX=0.75;exitY=1;exitDx=0;exitDy=0;entryX=0;entryY=0;entryDx=0;entryDy=0;fillColor=#a0522d;strokeColor=#6D1F00;" parent="1" target="3jUxStKqnb5tfGaNxafw-164" edge="1">
          <mxGeometry width="50" height="50" relative="1" as="geometry">
            <mxPoint x="1463" y="1081" as="sourcePoint" />
            <mxPoint x="1434" y="1129" as="targetPoint" />
          </mxGeometry>
        </mxCell>
        <mxCell id="3jUxStKqnb5tfGaNxafw-167" value="" style="endArrow=classic;html=1;rounded=0;exitX=1;exitY=0.5;exitDx=0;exitDy=0;entryX=0;entryY=0.5;entryDx=0;entryDy=0;fillColor=#a0522d;strokeColor=#6D1F00;" parent="1" source="3jUxStKqnb5tfGaNxafw-161" target="3jUxStKqnb5tfGaNxafw-162" edge="1">
          <mxGeometry width="50" height="50" relative="1" as="geometry">
            <mxPoint x="1412" y="1081" as="sourcePoint" />
            <mxPoint x="1383" y="1129" as="targetPoint" />
          </mxGeometry>
        </mxCell>
        <mxCell id="3jUxStKqnb5tfGaNxafw-168" value="Id_Libro" style="ellipse;shape=doubleEllipse;margin=3;whiteSpace=wrap;html=1;align=center;fillColor=#a0522d;fontColor=#ffffff;strokeColor=#6D1F00;" parent="1" vertex="1">
          <mxGeometry x="1433" y="971" width="100" height="40" as="geometry" />
        </mxCell>
        <mxCell id="3jUxStKqnb5tfGaNxafw-169" value="Id_Proveedor" style="ellipse;shape=doubleEllipse;margin=3;whiteSpace=wrap;html=1;align=center;fillColor=#a0522d;fontColor=#ffffff;strokeColor=#6D1F00;" parent="1" vertex="1">
          <mxGeometry x="1283" y="971" width="100" height="40" as="geometry" />
        </mxCell>
        <mxCell id="3jUxStKqnb5tfGaNxafw-170" value="&lt;font style=&quot;font-size: 8px;&quot;&gt;Que se compro y &lt;br&gt;de quien&lt;/font&gt;" style="strokeWidth=2;html=1;shape=mxgraph.flowchart.decision;whiteSpace=wrap;fillColor=#a0522d;fontColor=#ffffff;strokeColor=#6D1F00;" parent="1" vertex="1">
          <mxGeometry x="1363" y="911" width="100" height="40" as="geometry" />
        </mxCell>
        <mxCell id="3jUxStKqnb5tfGaNxafw-171" value="" style="endArrow=classic;html=1;rounded=0;exitX=0.75;exitY=1;exitDx=0;exitDy=0;fillColor=#a0522d;strokeColor=#6D1F00;" parent="1" edge="1">
          <mxGeometry width="50" height="50" relative="1" as="geometry">
            <mxPoint x="1383" y="938" as="sourcePoint" />
            <mxPoint x="1324" y="971" as="targetPoint" />
          </mxGeometry>
        </mxCell>
        <mxCell id="3jUxStKqnb5tfGaNxafw-172" value="" style="endArrow=classic;html=1;rounded=0;exitX=0.75;exitY=1;exitDx=0;exitDy=0;entryX=0.593;entryY=-0.083;entryDx=0;entryDy=0;entryPerimeter=0;fillColor=#a0522d;strokeColor=#6D1F00;" parent="1" edge="1">
          <mxGeometry width="50" height="50" relative="1" as="geometry">
            <mxPoint x="1443" y="938.32" as="sourcePoint" />
            <mxPoint x="1486.2999999999997" y="970.9999999999999" as="targetPoint" />
          </mxGeometry>
        </mxCell>
        <mxCell id="lofzMnTzEdRTd5K9Z9km-3" style="edgeStyle=orthogonalEdgeStyle;rounded=0;orthogonalLoop=1;jettySize=auto;html=1;entryX=0.5;entryY=0;entryDx=0;entryDy=0;entryPerimeter=0;exitX=0.5;exitY=1;exitDx=0;exitDy=0;fillColor=#fa6800;strokeColor=#C73500;" parent="1" source="3jUxStKqnb5tfGaNxafw-174" target="3jUxStKqnb5tfGaNxafw-183" edge="1">
          <mxGeometry relative="1" as="geometry">
            <mxPoint x="2440" y="840" as="targetPoint" />
            <mxPoint x="2440" y="800" as="sourcePoint" />
          </mxGeometry>
        </mxCell>
        <mxCell id="3jUxStKqnb5tfGaNxafw-174" value="Ventas_Libros" style="rounded=0;whiteSpace=wrap;html=1;fillColor=#fa6800;fontColor=#000000;strokeColor=#C73500;" parent="1" vertex="1">
          <mxGeometry x="2390" y="637" width="100" height="40" as="geometry" />
        </mxCell>
        <mxCell id="3jUxStKqnb5tfGaNxafw-175" value="Id_Venta" style="ellipse;shape=doubleEllipse;margin=3;whiteSpace=wrap;html=1;align=center;fillColor=#fa6800;fontColor=#000000;strokeColor=#C73500;" parent="1" vertex="1">
          <mxGeometry x="2220" y="640" width="100" height="40" as="geometry" />
        </mxCell>
        <mxCell id="3jUxStKqnb5tfGaNxafw-176" value="Precio_Unitario" style="ellipse;whiteSpace=wrap;html=1;fillColor=#fa6800;fontColor=#000000;strokeColor=#C73500;" parent="1" vertex="1">
          <mxGeometry x="2240" y="707" width="120" height="40" as="geometry" />
        </mxCell>
        <mxCell id="3jUxStKqnb5tfGaNxafw-177" value="Cantidad" style="ellipse;whiteSpace=wrap;html=1;fillColor=#fa6800;fontColor=#000000;strokeColor=#C73500;" parent="1" vertex="1">
          <mxGeometry x="2520" y="707" width="120" height="40" as="geometry" />
        </mxCell>
        <mxCell id="3jUxStKqnb5tfGaNxafw-178" value="" style="endArrow=classic;html=1;rounded=0;exitX=0.75;exitY=1;exitDx=0;exitDy=0;fillColor=#fa6800;strokeColor=#C73500;" parent="1" target="3jUxStKqnb5tfGaNxafw-176" edge="1">
          <mxGeometry width="50" height="50" relative="1" as="geometry">
            <mxPoint x="2390" y="677" as="sourcePoint" />
            <mxPoint x="2361" y="725" as="targetPoint" />
          </mxGeometry>
        </mxCell>
        <mxCell id="3jUxStKqnb5tfGaNxafw-179" value="" style="endArrow=classic;html=1;rounded=0;exitX=0.75;exitY=1;exitDx=0;exitDy=0;entryX=0;entryY=0;entryDx=0;entryDy=0;fillColor=#fa6800;strokeColor=#C73500;" parent="1" target="3jUxStKqnb5tfGaNxafw-177" edge="1">
          <mxGeometry width="50" height="50" relative="1" as="geometry">
            <mxPoint x="2490" y="677" as="sourcePoint" />
            <mxPoint x="2461" y="725" as="targetPoint" />
          </mxGeometry>
        </mxCell>
        <mxCell id="3jUxStKqnb5tfGaNxafw-180" value="" style="endArrow=classic;html=1;rounded=0;exitX=0;exitY=0.5;exitDx=0;exitDy=0;entryX=1;entryY=0.5;entryDx=0;entryDy=0;fillColor=#fa6800;strokeColor=#C73500;" parent="1" source="3jUxStKqnb5tfGaNxafw-174" target="3jUxStKqnb5tfGaNxafw-175" edge="1">
          <mxGeometry width="50" height="50" relative="1" as="geometry">
            <mxPoint x="2439" y="677" as="sourcePoint" />
            <mxPoint x="2410" y="725" as="targetPoint" />
          </mxGeometry>
        </mxCell>
        <mxCell id="3jUxStKqnb5tfGaNxafw-181" value="Id_Usuario" style="ellipse;shape=doubleEllipse;margin=3;whiteSpace=wrap;html=1;align=center;fillColor=#fa6800;fontColor=#000000;strokeColor=#C73500;" parent="1" vertex="1">
          <mxGeometry x="2460" y="810" width="100" height="40" as="geometry" />
        </mxCell>
        <mxCell id="3jUxStKqnb5tfGaNxafw-182" value="Id_Libro" style="ellipse;shape=doubleEllipse;margin=3;whiteSpace=wrap;html=1;align=center;fillColor=#fa6800;fontColor=#000000;strokeColor=#C73500;" parent="1" vertex="1">
          <mxGeometry x="2330" y="810" width="100" height="40" as="geometry" />
        </mxCell>
        <mxCell id="3jUxStKqnb5tfGaNxafw-183" value="&lt;font style=&quot;font-size: 8px;&quot;&gt;Que se vende y&lt;br&gt;a quien&amp;nbsp;&lt;br&gt;&lt;/font&gt;" style="strokeWidth=2;html=1;shape=mxgraph.flowchart.decision;whiteSpace=wrap;fillColor=#fa6800;fontColor=#000000;strokeColor=#C73500;" parent="1" vertex="1">
          <mxGeometry x="2390" y="760" width="100" height="40" as="geometry" />
        </mxCell>
        <mxCell id="3jUxStKqnb5tfGaNxafw-184" value="" style="endArrow=classic;html=1;rounded=0;exitX=0.225;exitY=0.737;exitDx=0;exitDy=0;exitPerimeter=0;entryX=0.5;entryY=0;entryDx=0;entryDy=0;fillColor=#fa6800;strokeColor=#C73500;" parent="1" source="3jUxStKqnb5tfGaNxafw-183" target="3jUxStKqnb5tfGaNxafw-182" edge="1">
          <mxGeometry width="50" height="50" relative="1" as="geometry">
            <mxPoint x="2130" y="863.5" as="sourcePoint" />
            <mxPoint x="2071" y="896.5" as="targetPoint" />
          </mxGeometry>
        </mxCell>
        <mxCell id="3jUxStKqnb5tfGaNxafw-186" value="" style="endArrow=classic;html=1;rounded=0;entryX=1;entryY=0.25;entryDx=0;entryDy=0;exitX=0;exitY=0.5;exitDx=0;exitDy=0;exitPerimeter=0;" parent="1" source="3jUxStKqnb5tfGaNxafw-183" target="ui4IRazxlRf7Joern0LO-2" edge="1">
          <mxGeometry width="50" height="50" relative="1" as="geometry">
            <mxPoint x="2440" y="547" as="sourcePoint" />
            <mxPoint x="2530" y="617" as="targetPoint" />
            <Array as="points">
              <mxPoint x="2000" y="780" />
              <mxPoint x="2000" y="920" />
            </Array>
          </mxGeometry>
        </mxCell>
        <mxCell id="3jUxStKqnb5tfGaNxafw-187" value="Fecha_Venta" style="ellipse;whiteSpace=wrap;html=1;fillColor=#fa6800;fontColor=#000000;strokeColor=#C73500;" parent="1" vertex="1">
          <mxGeometry x="2520" y="637" width="120" height="40" as="geometry" />
        </mxCell>
        <mxCell id="3jUxStKqnb5tfGaNxafw-188" value="" style="edgeStyle=orthogonalEdgeStyle;rounded=0;orthogonalLoop=1;jettySize=auto;html=1;exitX=1;exitY=0.5;exitDx=0;exitDy=0;entryX=0;entryY=0.5;entryDx=0;entryDy=0;fillColor=#fa6800;strokeColor=#C73500;" parent="1" edge="1">
          <mxGeometry relative="1" as="geometry">
            <mxPoint x="2490" y="656.89" as="sourcePoint" />
            <mxPoint x="2520" y="656.89" as="targetPoint" />
          </mxGeometry>
        </mxCell>
        <mxCell id="3jUxStKqnb5tfGaNxafw-189" value="Almacen" style="rounded=0;whiteSpace=wrap;html=1;fillColor=#647687;strokeColor=#314354;fontColor=#ffffff;" parent="1" vertex="1">
          <mxGeometry x="1763" y="637" width="100" height="40" as="geometry" />
        </mxCell>
        <mxCell id="3jUxStKqnb5tfGaNxafw-190" value="Id_Inventario" style="ellipse;shape=doubleEllipse;margin=3;whiteSpace=wrap;html=1;align=center;fillColor=#647687;strokeColor=#314354;fontColor=#ffffff;" parent="1" vertex="1">
          <mxGeometry x="1764" y="520" width="100" height="40" as="geometry" />
        </mxCell>
        <mxCell id="3jUxStKqnb5tfGaNxafw-191" value="Cantidad_Total" style="ellipse;whiteSpace=wrap;html=1;fillColor=#647687;strokeColor=#314354;fontColor=#ffffff;" parent="1" vertex="1">
          <mxGeometry x="1613" y="707" width="120" height="40" as="geometry" />
        </mxCell>
        <mxCell id="3jUxStKqnb5tfGaNxafw-192" value="Cantidad_Disponible" style="ellipse;whiteSpace=wrap;html=1;fillColor=#647687;strokeColor=#314354;fontColor=#ffffff;" parent="1" vertex="1">
          <mxGeometry x="1893" y="707" width="120" height="40" as="geometry" />
        </mxCell>
        <mxCell id="3jUxStKqnb5tfGaNxafw-193" value="" style="endArrow=classic;html=1;rounded=0;exitX=0.75;exitY=1;exitDx=0;exitDy=0;fillColor=#647687;strokeColor=#314354;" parent="1" target="3jUxStKqnb5tfGaNxafw-191" edge="1">
          <mxGeometry width="50" height="50" relative="1" as="geometry">
            <mxPoint x="1763" y="677" as="sourcePoint" />
            <mxPoint x="1734" y="725" as="targetPoint" />
          </mxGeometry>
        </mxCell>
        <mxCell id="3jUxStKqnb5tfGaNxafw-194" value="" style="endArrow=classic;html=1;rounded=0;exitX=0.75;exitY=1;exitDx=0;exitDy=0;entryX=0;entryY=0;entryDx=0;entryDy=0;fillColor=#647687;strokeColor=#314354;" parent="1" target="3jUxStKqnb5tfGaNxafw-192" edge="1">
          <mxGeometry width="50" height="50" relative="1" as="geometry">
            <mxPoint x="1863" y="677" as="sourcePoint" />
            <mxPoint x="1834" y="725" as="targetPoint" />
          </mxGeometry>
        </mxCell>
        <mxCell id="3jUxStKqnb5tfGaNxafw-195" value="" style="endArrow=classic;html=1;rounded=0;exitX=0.5;exitY=0;exitDx=0;exitDy=0;fillColor=#647687;strokeColor=#314354;" parent="1" source="3jUxStKqnb5tfGaNxafw-189" edge="1">
          <mxGeometry width="50" height="50" relative="1" as="geometry">
            <mxPoint x="1812" y="630" as="sourcePoint" />
            <mxPoint x="1812" y="560" as="targetPoint" />
          </mxGeometry>
        </mxCell>
        <mxCell id="3jUxStKqnb5tfGaNxafw-197" value="Id_Libro" style="ellipse;shape=doubleEllipse;margin=3;whiteSpace=wrap;html=1;align=center;fillColor=#647687;strokeColor=#314354;fontColor=#ffffff;" parent="1" vertex="1">
          <mxGeometry x="1674" y="830" width="100" height="40" as="geometry" />
        </mxCell>
        <mxCell id="3jUxStKqnb5tfGaNxafw-198" value="Almacena" style="strokeWidth=2;html=1;shape=mxgraph.flowchart.decision;whiteSpace=wrap;fillColor=#647687;strokeColor=#314354;fontColor=#ffffff;" parent="1" vertex="1">
          <mxGeometry x="1763" y="770" width="100" height="40" as="geometry" />
        </mxCell>
        <mxCell id="3jUxStKqnb5tfGaNxafw-199" value="" style="endArrow=classic;html=1;rounded=0;exitX=0.75;exitY=1;exitDx=0;exitDy=0;fillColor=#647687;strokeColor=#314354;" parent="1" edge="1">
          <mxGeometry width="50" height="50" relative="1" as="geometry">
            <mxPoint x="1783" y="797" as="sourcePoint" />
            <mxPoint x="1724" y="830" as="targetPoint" />
          </mxGeometry>
        </mxCell>
        <mxCell id="3jUxStKqnb5tfGaNxafw-204" value="Ingresos" style="rounded=0;whiteSpace=wrap;html=1;fillColor=#e3c800;fontColor=#000000;strokeColor=#B09500;" parent="1" vertex="1">
          <mxGeometry x="2760" y="461" width="100" height="40" as="geometry" />
        </mxCell>
        <mxCell id="3jUxStKqnb5tfGaNxafw-205" value="Id_Ingreso" style="ellipse;shape=doubleEllipse;margin=3;whiteSpace=wrap;html=1;align=center;fillColor=#e3c800;fontColor=#000000;strokeColor=#B09500;" parent="1" vertex="1">
          <mxGeometry x="2760" y="531" width="100" height="40" as="geometry" />
        </mxCell>
        <mxCell id="3jUxStKqnb5tfGaNxafw-206" value="Descripcion" style="ellipse;whiteSpace=wrap;html=1;fillColor=#e3c800;fontColor=#000000;strokeColor=#B09500;" parent="1" vertex="1">
          <mxGeometry x="2610" y="531" width="120" height="40" as="geometry" />
        </mxCell>
        <mxCell id="3jUxStKqnb5tfGaNxafw-207" value="Fecha_Ingreso" style="ellipse;whiteSpace=wrap;html=1;fillColor=#e3c800;fontColor=#000000;strokeColor=#B09500;" parent="1" vertex="1">
          <mxGeometry x="2890" y="531" width="120" height="40" as="geometry" />
        </mxCell>
        <mxCell id="3jUxStKqnb5tfGaNxafw-208" value="" style="endArrow=classic;html=1;rounded=0;exitX=0.75;exitY=1;exitDx=0;exitDy=0;fillColor=#e3c800;strokeColor=#B09500;" parent="1" target="3jUxStKqnb5tfGaNxafw-206" edge="1">
          <mxGeometry width="50" height="50" relative="1" as="geometry">
            <mxPoint x="2760" y="501" as="sourcePoint" />
            <mxPoint x="2731" y="549" as="targetPoint" />
          </mxGeometry>
        </mxCell>
        <mxCell id="3jUxStKqnb5tfGaNxafw-209" value="" style="endArrow=classic;html=1;rounded=0;exitX=0.75;exitY=1;exitDx=0;exitDy=0;entryX=0;entryY=0;entryDx=0;entryDy=0;fillColor=#e3c800;strokeColor=#B09500;" parent="1" target="3jUxStKqnb5tfGaNxafw-207" edge="1">
          <mxGeometry width="50" height="50" relative="1" as="geometry">
            <mxPoint x="2860" y="501" as="sourcePoint" />
            <mxPoint x="2831" y="549" as="targetPoint" />
          </mxGeometry>
        </mxCell>
        <mxCell id="3jUxStKqnb5tfGaNxafw-210" value="" style="endArrow=classic;html=1;rounded=0;exitX=0.75;exitY=1;exitDx=0;exitDy=0;entryX=0.5;entryY=0;entryDx=0;entryDy=0;fillColor=#e3c800;strokeColor=#B09500;" parent="1" target="3jUxStKqnb5tfGaNxafw-205" edge="1">
          <mxGeometry width="50" height="50" relative="1" as="geometry">
            <mxPoint x="2809" y="501" as="sourcePoint" />
            <mxPoint x="2780" y="549" as="targetPoint" />
          </mxGeometry>
        </mxCell>
        <mxCell id="3jUxStKqnb5tfGaNxafw-212" value="Id_Venta" style="ellipse;shape=doubleEllipse;margin=3;whiteSpace=wrap;html=1;align=center;fillColor=#e3c800;fontColor=#000000;strokeColor=#B09500;" parent="1" vertex="1">
          <mxGeometry x="2570" y="410" width="100" height="40" as="geometry" />
        </mxCell>
        <mxCell id="3jUxStKqnb5tfGaNxafw-213" value="Cuanto se vendio" style="strokeWidth=2;html=1;shape=mxgraph.flowchart.decision;whiteSpace=wrap;fillColor=#e3c800;fontColor=#000000;strokeColor=#B09500;" parent="1" vertex="1">
          <mxGeometry x="2510" y="460" width="100" height="40" as="geometry" />
        </mxCell>
        <mxCell id="3jUxStKqnb5tfGaNxafw-214" value="" style="endArrow=classic;html=1;rounded=0;exitX=0.709;exitY=0.222;exitDx=0;exitDy=0;exitPerimeter=0;fillColor=#e3c800;strokeColor=#B09500;" parent="1" source="3jUxStKqnb5tfGaNxafw-213" edge="1">
          <mxGeometry width="50" height="50" relative="1" as="geometry">
            <mxPoint x="2780" y="358" as="sourcePoint" />
            <mxPoint x="2600" y="450" as="targetPoint" />
          </mxGeometry>
        </mxCell>
        <mxCell id="3jUxStKqnb5tfGaNxafw-216" value="" style="endArrow=classic;html=1;rounded=0;entryX=1;entryY=0.5;entryDx=0;entryDy=0;exitX=0;exitY=0.5;exitDx=0;exitDy=0;entryPerimeter=0;fillColor=#e3c800;strokeColor=#B09500;" parent="1" source="3jUxStKqnb5tfGaNxafw-204" target="3jUxStKqnb5tfGaNxafw-213" edge="1">
          <mxGeometry width="50" height="50" relative="1" as="geometry">
            <mxPoint x="2810" y="371" as="sourcePoint" />
            <mxPoint x="2900" y="441" as="targetPoint" />
          </mxGeometry>
        </mxCell>
        <mxCell id="3jUxStKqnb5tfGaNxafw-217" value="Monto" style="ellipse;whiteSpace=wrap;html=1;fillColor=#e3c800;fontColor=#000000;strokeColor=#B09500;" parent="1" vertex="1">
          <mxGeometry x="2890" y="461" width="120" height="40" as="geometry" />
        </mxCell>
        <mxCell id="3jUxStKqnb5tfGaNxafw-218" value="" style="edgeStyle=orthogonalEdgeStyle;rounded=0;orthogonalLoop=1;jettySize=auto;html=1;exitX=1;exitY=0.5;exitDx=0;exitDy=0;entryX=0;entryY=0.5;entryDx=0;entryDy=0;fillColor=#e3c800;strokeColor=#B09500;" parent="1" edge="1">
          <mxGeometry relative="1" as="geometry">
            <mxPoint x="2860" y="480.8899999999999" as="sourcePoint" />
            <mxPoint x="2890" y="480.8899999999999" as="targetPoint" />
          </mxGeometry>
        </mxCell>
        <mxCell id="3jUxStKqnb5tfGaNxafw-219" value="Sueldo" style="rounded=0;whiteSpace=wrap;html=1;fillColor=#6d8764;fontColor=#ffffff;strokeColor=#3A5431;" parent="1" vertex="1">
          <mxGeometry x="680" y="1353" width="100" height="40" as="geometry" />
        </mxCell>
        <mxCell id="3jUxStKqnb5tfGaNxafw-220" value="Id_Sueldo" style="ellipse;shape=doubleEllipse;margin=3;whiteSpace=wrap;html=1;align=center;fillColor=#6d8764;fontColor=#ffffff;strokeColor=#3A5431;" parent="1" vertex="1">
          <mxGeometry x="680" y="1423" width="100" height="40" as="geometry" />
        </mxCell>
        <mxCell id="3jUxStKqnb5tfGaNxafw-221" value="Monto" style="ellipse;whiteSpace=wrap;html=1;fillColor=#6d8764;fontColor=#ffffff;strokeColor=#3A5431;" parent="1" vertex="1">
          <mxGeometry x="530" y="1423" width="120" height="40" as="geometry" />
        </mxCell>
        <mxCell id="3jUxStKqnb5tfGaNxafw-222" value="Año" style="ellipse;whiteSpace=wrap;html=1;fillColor=#6d8764;fontColor=#ffffff;strokeColor=#3A5431;" parent="1" vertex="1">
          <mxGeometry x="810" y="1423" width="120" height="40" as="geometry" />
        </mxCell>
        <mxCell id="3jUxStKqnb5tfGaNxafw-223" value="" style="endArrow=classic;html=1;rounded=0;exitX=0.75;exitY=1;exitDx=0;exitDy=0;fillColor=#6d8764;strokeColor=#3A5431;" parent="1" target="3jUxStKqnb5tfGaNxafw-221" edge="1">
          <mxGeometry width="50" height="50" relative="1" as="geometry">
            <mxPoint x="680" y="1393" as="sourcePoint" />
            <mxPoint x="651" y="1441" as="targetPoint" />
          </mxGeometry>
        </mxCell>
        <mxCell id="3jUxStKqnb5tfGaNxafw-224" value="" style="endArrow=classic;html=1;rounded=0;exitX=0.75;exitY=1;exitDx=0;exitDy=0;entryX=0;entryY=0;entryDx=0;entryDy=0;fillColor=#6d8764;strokeColor=#3A5431;" parent="1" target="3jUxStKqnb5tfGaNxafw-222" edge="1">
          <mxGeometry width="50" height="50" relative="1" as="geometry">
            <mxPoint x="780" y="1393" as="sourcePoint" />
            <mxPoint x="751" y="1441" as="targetPoint" />
          </mxGeometry>
        </mxCell>
        <mxCell id="3jUxStKqnb5tfGaNxafw-225" value="" style="endArrow=classic;html=1;rounded=0;exitX=0.75;exitY=1;exitDx=0;exitDy=0;entryX=0.5;entryY=0;entryDx=0;entryDy=0;fillColor=#6d8764;strokeColor=#3A5431;" parent="1" target="3jUxStKqnb5tfGaNxafw-220" edge="1">
          <mxGeometry width="50" height="50" relative="1" as="geometry">
            <mxPoint x="729" y="1393" as="sourcePoint" />
            <mxPoint x="700" y="1441" as="targetPoint" />
          </mxGeometry>
        </mxCell>
        <mxCell id="3jUxStKqnb5tfGaNxafw-226" value="Id_Empleado" style="ellipse;shape=doubleEllipse;margin=3;whiteSpace=wrap;html=1;align=center;fillColor=#6d8764;fontColor=#ffffff;strokeColor=#3A5431;" parent="1" vertex="1">
          <mxGeometry x="600" y="1283" width="100" height="40" as="geometry" />
        </mxCell>
        <mxCell id="3jUxStKqnb5tfGaNxafw-227" value="&lt;font style=&quot;font-size: 10px;&quot;&gt;A quien se paga&lt;/font&gt;" style="strokeWidth=2;html=1;shape=mxgraph.flowchart.decision;whiteSpace=wrap;fillColor=#6d8764;fontColor=#ffffff;strokeColor=#3A5431;" parent="1" vertex="1">
          <mxGeometry x="680" y="1223" width="100" height="40" as="geometry" />
        </mxCell>
        <mxCell id="3jUxStKqnb5tfGaNxafw-228" value="" style="endArrow=classic;html=1;rounded=0;exitX=0.75;exitY=1;exitDx=0;exitDy=0;fillColor=#6d8764;strokeColor=#3A5431;" parent="1" edge="1">
          <mxGeometry width="50" height="50" relative="1" as="geometry">
            <mxPoint x="700" y="1250" as="sourcePoint" />
            <mxPoint x="641" y="1283" as="targetPoint" />
          </mxGeometry>
        </mxCell>
        <mxCell id="3jUxStKqnb5tfGaNxafw-229" value="" style="endArrow=classic;html=1;rounded=0;entryX=0.5;entryY=0;entryDx=0;entryDy=0;fillColor=#6d8764;strokeColor=#3A5431;" parent="1" target="3jUxStKqnb5tfGaNxafw-219" edge="1">
          <mxGeometry width="50" height="50" relative="1" as="geometry">
            <mxPoint x="730" y="1263" as="sourcePoint" />
            <mxPoint x="820" y="1333" as="targetPoint" />
          </mxGeometry>
        </mxCell>
        <mxCell id="3jUxStKqnb5tfGaNxafw-230" value="Mes" style="ellipse;whiteSpace=wrap;html=1;fillColor=#6d8764;fontColor=#ffffff;strokeColor=#3A5431;" parent="1" vertex="1">
          <mxGeometry x="810" y="1353" width="120" height="40" as="geometry" />
        </mxCell>
        <mxCell id="3jUxStKqnb5tfGaNxafw-231" value="" style="edgeStyle=orthogonalEdgeStyle;rounded=0;orthogonalLoop=1;jettySize=auto;html=1;exitX=1;exitY=0.5;exitDx=0;exitDy=0;entryX=0;entryY=0.5;entryDx=0;entryDy=0;fillColor=#6d8764;strokeColor=#3A5431;" parent="1" edge="1">
          <mxGeometry relative="1" as="geometry">
            <mxPoint x="780" y="1372.8899999999999" as="sourcePoint" />
            <mxPoint x="810" y="1372.8899999999999" as="targetPoint" />
          </mxGeometry>
        </mxCell>
        <mxCell id="3jUxStKqnb5tfGaNxafw-232" value="Gastos" style="rounded=0;whiteSpace=wrap;html=1;fillColor=#fa6800;strokeColor=#C73500;fontColor=#000000;" parent="1" vertex="1">
          <mxGeometry x="1113" y="1350" width="100" height="40" as="geometry" />
        </mxCell>
        <mxCell id="3jUxStKqnb5tfGaNxafw-233" value="Id_Gasto" style="ellipse;shape=doubleEllipse;margin=3;whiteSpace=wrap;html=1;align=center;fillColor=#fa6800;strokeColor=#C73500;fontColor=#000000;" parent="1" vertex="1">
          <mxGeometry x="1113" y="1420" width="100" height="40" as="geometry" />
        </mxCell>
        <mxCell id="3jUxStKqnb5tfGaNxafw-234" value="Descripcion" style="ellipse;whiteSpace=wrap;html=1;fillColor=#fa6800;strokeColor=#C73500;fontColor=#000000;" parent="1" vertex="1">
          <mxGeometry x="963" y="1420" width="120" height="40" as="geometry" />
        </mxCell>
        <mxCell id="3jUxStKqnb5tfGaNxafw-235" value="Monto" style="ellipse;whiteSpace=wrap;html=1;fillColor=#fa6800;strokeColor=#C73500;fontColor=#000000;" parent="1" vertex="1">
          <mxGeometry x="1243" y="1420" width="120" height="40" as="geometry" />
        </mxCell>
        <mxCell id="3jUxStKqnb5tfGaNxafw-236" value="" style="endArrow=classic;html=1;rounded=0;exitX=0.75;exitY=1;exitDx=0;exitDy=0;fillColor=#fa6800;strokeColor=#C73500;" parent="1" target="3jUxStKqnb5tfGaNxafw-234" edge="1">
          <mxGeometry width="50" height="50" relative="1" as="geometry">
            <mxPoint x="1113" y="1390" as="sourcePoint" />
            <mxPoint x="1084" y="1438" as="targetPoint" />
          </mxGeometry>
        </mxCell>
        <mxCell id="3jUxStKqnb5tfGaNxafw-237" value="" style="endArrow=classic;html=1;rounded=0;exitX=0.75;exitY=1;exitDx=0;exitDy=0;entryX=0;entryY=0;entryDx=0;entryDy=0;fillColor=#fa6800;strokeColor=#C73500;" parent="1" target="3jUxStKqnb5tfGaNxafw-235" edge="1">
          <mxGeometry width="50" height="50" relative="1" as="geometry">
            <mxPoint x="1213" y="1390" as="sourcePoint" />
            <mxPoint x="1184" y="1438" as="targetPoint" />
          </mxGeometry>
        </mxCell>
        <mxCell id="3jUxStKqnb5tfGaNxafw-238" value="" style="endArrow=classic;html=1;rounded=0;exitX=0.75;exitY=1;exitDx=0;exitDy=0;entryX=0.5;entryY=0;entryDx=0;entryDy=0;fillColor=#fa6800;strokeColor=#C73500;" parent="1" target="3jUxStKqnb5tfGaNxafw-233" edge="1">
          <mxGeometry width="50" height="50" relative="1" as="geometry">
            <mxPoint x="1162" y="1390" as="sourcePoint" />
            <mxPoint x="1133" y="1438" as="targetPoint" />
          </mxGeometry>
        </mxCell>
        <mxCell id="3jUxStKqnb5tfGaNxafw-239" value="Id_Compra" style="ellipse;shape=doubleEllipse;margin=3;whiteSpace=wrap;html=1;align=center;fillColor=#fa6800;strokeColor=#C73500;fontColor=#000000;" parent="1" vertex="1">
          <mxGeometry x="1183" y="1280" width="100" height="40" as="geometry" />
        </mxCell>
        <mxCell id="3jUxStKqnb5tfGaNxafw-240" value="Id_Sueldo" style="ellipse;shape=doubleEllipse;margin=3;whiteSpace=wrap;html=1;align=center;fillColor=#fa6800;strokeColor=#C73500;fontColor=#000000;" parent="1" vertex="1">
          <mxGeometry x="1033" y="1280" width="100" height="40" as="geometry" />
        </mxCell>
        <mxCell id="3jUxStKqnb5tfGaNxafw-241" value="Se gasta en :" style="strokeWidth=2;html=1;shape=mxgraph.flowchart.decision;whiteSpace=wrap;fillColor=#fa6800;strokeColor=#C73500;fontColor=#000000;" parent="1" vertex="1">
          <mxGeometry x="1113" y="1220" width="100" height="40" as="geometry" />
        </mxCell>
        <mxCell id="3jUxStKqnb5tfGaNxafw-242" value="" style="endArrow=classic;html=1;rounded=0;exitX=0.75;exitY=1;exitDx=0;exitDy=0;fillColor=#fa6800;strokeColor=#C73500;" parent="1" edge="1">
          <mxGeometry width="50" height="50" relative="1" as="geometry">
            <mxPoint x="1133" y="1247" as="sourcePoint" />
            <mxPoint x="1074" y="1280" as="targetPoint" />
          </mxGeometry>
        </mxCell>
        <mxCell id="3jUxStKqnb5tfGaNxafw-243" value="" style="endArrow=classic;html=1;rounded=0;exitX=0.75;exitY=1;exitDx=0;exitDy=0;entryX=0.593;entryY=-0.083;entryDx=0;entryDy=0;entryPerimeter=0;fillColor=#fa6800;strokeColor=#C73500;" parent="1" edge="1">
          <mxGeometry width="50" height="50" relative="1" as="geometry">
            <mxPoint x="1193" y="1247.3200000000002" as="sourcePoint" />
            <mxPoint x="1236.2999999999997" y="1280" as="targetPoint" />
          </mxGeometry>
        </mxCell>
        <mxCell id="3jUxStKqnb5tfGaNxafw-244" value="" style="endArrow=classic;html=1;rounded=0;entryX=0.5;entryY=0;entryDx=0;entryDy=0;fillColor=#fa6800;strokeColor=#C73500;" parent="1" target="3jUxStKqnb5tfGaNxafw-232" edge="1">
          <mxGeometry width="50" height="50" relative="1" as="geometry">
            <mxPoint x="1163" y="1260" as="sourcePoint" />
            <mxPoint x="1253" y="1330" as="targetPoint" />
          </mxGeometry>
        </mxCell>
        <mxCell id="3jUxStKqnb5tfGaNxafw-245" value="Fecha_Gasto" style="ellipse;whiteSpace=wrap;html=1;fillColor=#fa6800;strokeColor=#C73500;fontColor=#000000;" parent="1" vertex="1">
          <mxGeometry x="1243" y="1350" width="120" height="40" as="geometry" />
        </mxCell>
        <mxCell id="3jUxStKqnb5tfGaNxafw-246" value="" style="edgeStyle=orthogonalEdgeStyle;rounded=0;orthogonalLoop=1;jettySize=auto;html=1;exitX=1;exitY=0.5;exitDx=0;exitDy=0;entryX=0;entryY=0.5;entryDx=0;entryDy=0;fillColor=#fa6800;strokeColor=#C73500;" parent="1" edge="1">
          <mxGeometry relative="1" as="geometry">
            <mxPoint x="1213" y="1369.8899999999999" as="sourcePoint" />
            <mxPoint x="1243" y="1369.8899999999999" as="targetPoint" />
          </mxGeometry>
        </mxCell>
        <mxCell id="lofzMnTzEdRTd5K9Z9km-1" value="" style="endArrow=classic;html=1;rounded=0;entryX=0.5;entryY=0;entryDx=0;entryDy=0;fillColor=#647687;strokeColor=#314354;entryPerimeter=0;" parent="1" target="3jUxStKqnb5tfGaNxafw-198" edge="1">
          <mxGeometry width="50" height="50" relative="1" as="geometry">
            <mxPoint x="1810" y="670" as="sourcePoint" />
            <mxPoint x="1812.6" y="687" as="targetPoint" />
          </mxGeometry>
        </mxCell>
        <mxCell id="lofzMnTzEdRTd5K9Z9km-2" value="" style="endArrow=classic;html=1;rounded=0;entryX=0.5;entryY=0;entryDx=0;entryDy=0;" parent="1" target="ui4IRazxlRf7Joern0LO-2" edge="1">
          <mxGeometry width="50" height="50" relative="1" as="geometry">
            <mxPoint x="1814" y="910" as="sourcePoint" />
            <mxPoint x="1814" y="830" as="targetPoint" />
            <Array as="points">
              <mxPoint x="1814" y="810" />
            </Array>
          </mxGeometry>
        </mxCell>
        <mxCell id="lofzMnTzEdRTd5K9Z9km-5" value="" style="endArrow=classic;html=1;rounded=0;entryX=0.5;entryY=0;entryDx=0;entryDy=0;" parent="1" target="3jUxStKqnb5tfGaNxafw-37" edge="1">
          <mxGeometry width="50" height="50" relative="1" as="geometry">
            <mxPoint x="2490" y="779.37" as="sourcePoint" />
            <mxPoint x="2580" y="779.37" as="targetPoint" />
            <Array as="points">
              <mxPoint x="2580" y="779" />
            </Array>
          </mxGeometry>
        </mxCell>
        <mxCell id="lofzMnTzEdRTd5K9Z9km-6" value="" style="endArrow=classic;html=1;rounded=0;entryX=0.5;entryY=0;entryDx=0;entryDy=0;exitX=0.8;exitY=0.737;exitDx=0;exitDy=0;exitPerimeter=0;fillColor=#fa6800;strokeColor=#C73500;" parent="1" source="3jUxStKqnb5tfGaNxafw-183" target="3jUxStKqnb5tfGaNxafw-181" edge="1">
          <mxGeometry width="50" height="50" relative="1" as="geometry">
            <mxPoint x="2548.3999999999996" y="871.0800000000002" as="sourcePoint" />
            <mxPoint x="2090" y="907" as="targetPoint" />
          </mxGeometry>
        </mxCell>
        <mxCell id="lofzMnTzEdRTd5K9Z9km-9" value="" style="endArrow=classic;html=1;rounded=0;entryX=0.5;entryY=0;entryDx=0;entryDy=0;exitX=0;exitY=0.5;exitDx=0;exitDy=0;exitPerimeter=0;" parent="1" source="3jUxStKqnb5tfGaNxafw-213" target="3jUxStKqnb5tfGaNxafw-174" edge="1">
          <mxGeometry width="50" height="50" relative="1" as="geometry">
            <mxPoint x="2515" y="479.89" as="sourcePoint" />
            <mxPoint x="2365" y="478.89" as="targetPoint" />
            <Array as="points">
              <mxPoint x="2440" y="480" />
            </Array>
          </mxGeometry>
        </mxCell>
        <mxCell id="lofzMnTzEdRTd5K9Z9km-10" value="" style="endArrow=classic;html=1;rounded=0;entryX=1;entryY=0.75;entryDx=0;entryDy=0;exitX=0.5;exitY=0;exitDx=0;exitDy=0;exitPerimeter=0;" parent="1" source="3jUxStKqnb5tfGaNxafw-68" target="ui4IRazxlRf7Joern0LO-2" edge="1">
          <mxGeometry width="50" height="50" relative="1" as="geometry">
            <mxPoint x="1630" y="910" as="sourcePoint" />
            <mxPoint x="1960" y="940" as="targetPoint" />
            <Array as="points">
              <mxPoint x="2250" y="940" />
              <mxPoint x="1970" y="940" />
            </Array>
          </mxGeometry>
        </mxCell>
        <mxCell id="lofzMnTzEdRTd5K9Z9km-11" value="" style="endArrow=classic;html=1;rounded=0;entryX=0;entryY=0.75;entryDx=0;entryDy=0;" parent="1" target="3jUxStKqnb5tfGaNxafw-37" edge="1">
          <mxGeometry width="50" height="50" relative="1" as="geometry">
            <mxPoint x="2250" y="990" as="sourcePoint" />
            <mxPoint x="2481" y="1043" as="targetPoint" />
          </mxGeometry>
        </mxCell>
        <mxCell id="lofzMnTzEdRTd5K9Z9km-12" value="" style="endArrow=classic;html=1;rounded=0;exitX=0.5;exitY=0;exitDx=0;exitDy=0;exitPerimeter=0;fillColor=#b0e3e6;strokeColor=#0e8088;" parent="1" source="3jUxStKqnb5tfGaNxafw-144" edge="1">
          <mxGeometry width="50" height="50" relative="1" as="geometry">
            <mxPoint x="3020" y="760" as="sourcePoint" />
            <mxPoint x="3010" y="790" as="targetPoint" />
          </mxGeometry>
        </mxCell>
        <mxCell id="lofzMnTzEdRTd5K9Z9km-13" value="" style="endArrow=classic;html=1;rounded=0;exitX=0;exitY=0.5;exitDx=0;exitDy=0;exitPerimeter=0;" parent="1" source="3jUxStKqnb5tfGaNxafw-144" edge="1">
          <mxGeometry width="50" height="50" relative="1" as="geometry">
            <mxPoint x="3030" y="770" as="sourcePoint" />
            <mxPoint x="2580" y="910" as="targetPoint" />
          </mxGeometry>
        </mxCell>
        <mxCell id="lofzMnTzEdRTd5K9Z9km-14" value="" style="endArrow=classic;html=1;rounded=0;exitX=0.5;exitY=1;exitDx=0;exitDy=0;exitPerimeter=0;entryX=0.323;entryY=0.017;entryDx=0;entryDy=0;entryPerimeter=0;" parent="1" source="3jUxStKqnb5tfGaNxafw-9" target="3jUxStKqnb5tfGaNxafw-26" edge="1">
          <mxGeometry width="50" height="50" relative="1" as="geometry">
            <mxPoint x="2210" y="1203" as="sourcePoint" />
            <mxPoint x="2151" y="1236" as="targetPoint" />
            <Array as="points">
              <mxPoint x="1815" y="1280" />
            </Array>
          </mxGeometry>
        </mxCell>
        <mxCell id="lofzMnTzEdRTd5K9Z9km-15" value="" style="endArrow=classic;html=1;rounded=0;entryX=0.5;entryY=0;entryDx=0;entryDy=0;" parent="1" edge="1">
          <mxGeometry width="50" height="50" relative="1" as="geometry">
            <mxPoint x="1816" y="1280" as="sourcePoint" />
            <mxPoint x="1632" y="1340" as="targetPoint" />
            <Array as="points" />
          </mxGeometry>
        </mxCell>
        <mxCell id="lofzMnTzEdRTd5K9Z9km-16" value="" style="endArrow=classic;html=1;rounded=0;exitX=1;exitY=0.5;exitDx=0;exitDy=0;exitPerimeter=0;entryX=0;entryY=0.5;entryDx=0;entryDy=0;" parent="1" source="3jUxStKqnb5tfGaNxafw-170" target="ui4IRazxlRf7Joern0LO-2" edge="1">
          <mxGeometry width="50" height="50" relative="1" as="geometry">
            <mxPoint x="1373" y="1110" as="sourcePoint" />
            <mxPoint x="1314" y="1143" as="targetPoint" />
          </mxGeometry>
        </mxCell>
        <mxCell id="lofzMnTzEdRTd5K9Z9km-17" value="" style="endArrow=classic;html=1;rounded=0;entryX=0.5;entryY=0;entryDx=0;entryDy=0;" parent="1" target="3jUxStKqnb5tfGaNxafw-150" edge="1">
          <mxGeometry width="50" height="50" relative="1" as="geometry">
            <mxPoint x="1360" y="930" as="sourcePoint" />
            <mxPoint x="1774" y="940" as="targetPoint" />
            <Array as="points">
              <mxPoint x="1033" y="930" />
            </Array>
          </mxGeometry>
        </mxCell>
        <mxCell id="lofzMnTzEdRTd5K9Z9km-18" value="" style="endArrow=classic;html=1;rounded=0;exitX=0.5;exitY=0;exitDx=0;exitDy=0;exitPerimeter=0;entryX=0;entryY=0.5;entryDx=0;entryDy=0;" parent="1" source="3jUxStKqnb5tfGaNxafw-241" target="3jUxStKqnb5tfGaNxafw-161" edge="1">
          <mxGeometry width="50" height="50" relative="1" as="geometry">
            <mxPoint x="1483" y="951" as="sourcePoint" />
            <mxPoint x="1784" y="950" as="targetPoint" />
            <Array as="points">
              <mxPoint x="1160" y="1160" />
              <mxPoint x="1280" y="1160" />
              <mxPoint x="1280" y="1061" />
            </Array>
          </mxGeometry>
        </mxCell>
        <mxCell id="lofzMnTzEdRTd5K9Z9km-19" value="" style="endArrow=classic;html=1;rounded=0;entryX=0.75;entryY=0;entryDx=0;entryDy=0;" parent="1" target="3jUxStKqnb5tfGaNxafw-219" edge="1">
          <mxGeometry width="50" height="50" relative="1" as="geometry">
            <mxPoint x="1110" y="1240" as="sourcePoint" />
            <mxPoint x="1064" y="1433" as="targetPoint" />
            <Array as="points">
              <mxPoint x="880" y="1240" />
              <mxPoint x="880" y="1320" />
              <mxPoint x="755" y="1320" />
            </Array>
          </mxGeometry>
        </mxCell>
        <mxCell id="lofzMnTzEdRTd5K9Z9km-21" value="" style="endArrow=classic;html=1;rounded=0;entryX=0.5;entryY=1;entryDx=0;entryDy=0;exitX=0;exitY=0.5;exitDx=0;exitDy=0;exitPerimeter=0;" parent="1" source="3jUxStKqnb5tfGaNxafw-227" target="3jUxStKqnb5tfGaNxafw-102" edge="1">
          <mxGeometry width="50" height="50" relative="1" as="geometry">
            <mxPoint x="740" y="1273" as="sourcePoint" />
            <mxPoint x="740" y="1363" as="targetPoint" />
            <Array as="points">
              <mxPoint x="550" y="1243" />
            </Array>
          </mxGeometry>
        </mxCell>
        <mxCell id="lofzMnTzEdRTd5K9Z9km-22" value="" style="endArrow=classic;html=1;rounded=0;entryX=0.5;entryY=1;entryDx=0;entryDy=0;exitX=0.5;exitY=0;exitDx=0;exitDy=0;entryPerimeter=0;fillColor=#a0522d;strokeColor=#6D1F00;" parent="1" source="3jUxStKqnb5tfGaNxafw-161" target="3jUxStKqnb5tfGaNxafw-170" edge="1">
          <mxGeometry width="50" height="50" relative="1" as="geometry">
            <mxPoint x="1413" y="951" as="sourcePoint" />
            <mxPoint x="1413" y="1041" as="targetPoint" />
          </mxGeometry>
        </mxCell>
        <mxCell id="lofzMnTzEdRTd5K9Z9km-23" value="" style="endArrow=classic;html=1;rounded=0;entryX=0.5;entryY=0;entryDx=0;entryDy=0;exitX=0.5;exitY=1;exitDx=0;exitDy=0;entryPerimeter=0;fillColor=#6d8764;strokeColor=#3A5431;" parent="1" source="3jUxStKqnb5tfGaNxafw-87" target="3jUxStKqnb5tfGaNxafw-96" edge="1">
          <mxGeometry width="50" height="50" relative="1" as="geometry">
            <mxPoint x="1386" y="630" as="sourcePoint" />
            <mxPoint x="1386" y="590" as="targetPoint" />
          </mxGeometry>
        </mxCell>
        <mxCell id="lofzMnTzEdRTd5K9Z9km-24" value="" style="endArrow=classic;html=1;rounded=0;entryX=0;entryY=0.25;entryDx=0;entryDy=0;exitX=1;exitY=0.5;exitDx=0;exitDy=0;exitPerimeter=0;" parent="1" source="3jUxStKqnb5tfGaNxafw-96" target="ui4IRazxlRf7Joern0LO-2" edge="1">
          <mxGeometry width="50" height="50" relative="1" as="geometry">
            <mxPoint x="1396" y="640" as="sourcePoint" />
            <mxPoint x="1396" y="600" as="targetPoint" />
            <Array as="points">
              <mxPoint x="1560" y="777" />
              <mxPoint x="1560" y="920" />
            </Array>
          </mxGeometry>
        </mxCell>
        <mxCell id="lofzMnTzEdRTd5K9Z9km-25" value="" style="endArrow=classic;html=1;rounded=0;exitX=0;exitY=0;exitDx=0;exitDy=0;entryX=0.818;entryY=0.966;entryDx=0;entryDy=0;entryPerimeter=0;fillColor=#76608a;strokeColor=#432D57;" parent="1" source="3jUxStKqnb5tfGaNxafw-76" target="3jUxStKqnb5tfGaNxafw-80" edge="1">
          <mxGeometry width="50" height="50" relative="1" as="geometry">
            <mxPoint x="909" y="670" as="sourcePoint" />
            <mxPoint x="850" y="703" as="targetPoint" />
          </mxGeometry>
        </mxCell>
        <mxCell id="lofzMnTzEdRTd5K9Z9km-26" value="" style="endArrow=classic;html=1;rounded=0;exitX=0;exitY=0.5;exitDx=0;exitDy=0;entryX=1;entryY=0.5;entryDx=0;entryDy=0;exitPerimeter=0;" parent="1" source="3jUxStKqnb5tfGaNxafw-96" target="3jUxStKqnb5tfGaNxafw-76" edge="1">
          <mxGeometry width="50" height="50" relative="1" as="geometry">
            <mxPoint x="931" y="766" as="sourcePoint" />
            <mxPoint x="930" y="717" as="targetPoint" />
          </mxGeometry>
        </mxCell>
      </root>
    </mxGraphModel>
  </diagram>
</mxfile>
